<?xml version="1.0" encoding="utf-8"?>

<!DOCTYPE svg PUBLIC "-//W3C//DTD SVG 1.1//EN" "http://www.w3.org/Graphics/SVG/1.1/DTD/svg11.dtd">
<svg version="1.1" id="Layer_1" xmlns="http://www.w3.org/2000/svg" xmlns:xlink="http://www.w3.org/1999/xlink" x="0px" y="0px"
	 viewBox="0 0 1730.01 1663.215" enable-background="new 0 0 1730.01 1663.215" xml:space="preserve">
<g>
	<path fill="#030303" stroke="#030303" d="M887.448,36.185c13.119-4.273,27.053-4.78,40.738-4.523
		c18.557,0.224,37.138,1.38,55.453,4.523c13.128,2.777,26.746,6.535,37.146,15.447c6.859,5.903,11.872,13.743,15.306,22.057
		c2.785,7.25,4.614,15.214,3.234,22.971c-0.599,3.475-2.793,6.551-6.003,8.048c-4.265,2.71-10.292,5.371-10.45,11.215
		c0.258,8.912,1.397,17.8,2.71,26.621c0.732,5.088-2.511,9.411-3.924,14.042c2.635,4.589,6.352,8.48,9.328,12.861
		c3.026,4.423,7.275,8.181,9.012,13.369c1.089,3.193,0.216,7.05-2.652,9.004c-4.107,2.885-8.779,4.905-12.637,8.156
		c-0.806,0.698-1.63,1.48-1.887,2.536c-0.848,4.373,0.349,8.796,0.183,13.186c-0.565,2.469-3.217,3.508-4.797,5.246
		c0.391,2.403,1.945,4.897,0.715,7.3c-1.937,4.689-6.136,7.724-9.569,11.215c-0.74,6.036,1.106,12.845-2.611,18.207
		c-1.43,2.586-4.589,3.043-7.216,3.525c-11.249,1.488-22.622,1.621-33.954,1.355c-1.721,0.15-4.049-0.515-5.121,1.264
		c-2.835,3.858-5.412,7.906-8.064,11.88c-1.521,1.829-0.557,4.822,1.563,5.737c6.801,3.916,13.535,7.965,19.953,12.479
		c9.968,7.291,19.878,15.314,26.371,25.997c5.063,8.114,5.163,17.95,6.227,27.153c0.291,11.93,1.114,23.844,1.056,35.783
		c-0.116,7.499,0.524,14.99,0.249,22.481c-0.349,6.967-0.914,14.208-4.182,20.51c-2.735,5.296-5.412,10.617-8.289,15.838
		c-2.494,4.348-1.513,9.553-1.754,14.333c-0.249,6.368,0.707,12.936-1.297,19.122c-2.128,8.048-5.03,15.929-6.294,24.185
		c-1.098,6.676,1.812,13.335,6.044,18.374c10.525,12.512,25.216,21.1,40.779,25.789c3.259,1.039,6.585,2.012,10.043,2.112
		c3.907,0.158,7.94,0.815,11.781-0.316c8.613-3.126,17.459-5.77,26.521-7.2c9.112-0.54,18.407-0.357,27.236,2.17
		c6.784,2.029,13.51,5.412,17.817,11.215c5.728,7.607,7.748,17.334,7.898,26.696c0.416,7.175-1.28,14.217-2.785,21.184
		c-2.02,7.74-4.315,15.738-9.511,22.023c-2.32,2.303-5.479,4.614-8.929,3.891c-3.226-1.438-6.335-3.143-9.719-4.19
		c-15.422-5.105-31.451-8.056-47.439-10.658c-27.294-4.282-54.763-7.208-82.274-9.586c-1.58-0.283-3.109-0.74-4.622-1.206
		c-5.77-1.339-11.157-4.24-15.264-8.522c-0.865-0.582-1.505-1.954-2.627-1.829c-2.727,4.922-6.693,8.987-9.478,13.876
		c-10.292,16.536-19.047,34.037-25.881,52.286c-2.486,6.385-4.065,13.061-6.219,19.562c-5.387,18.789-9.486,38.21-8.979,57.856
		c-0.083,8.006,1.305,15.904,3.176,23.653c0.906,7.557,3.891,14.607,6.925,21.516c5.853,14.158,13.219,27.61,20.302,41.17
		c16.628,31.518,34.694,62.254,52.219,93.273c17.326,29.423,34.087,59.327,54.73,86.613c3.799,4.78,7.366,9.777,11.747,14.059
		c1.48,1.438,2.677,3.217,2.985,5.313c1.721,9.386,2.029,19.089,0.299,28.492c-0.557,3.567-3.409,6.003-5.396,8.796
		c-4.905,6.327-6.668,14.441-7.391,22.248c-1.53,22.123-0.349,44.321,0.798,66.427c0.291,11.639,1.006,23.279,1.621,34.91
		c-0.042,9.735,0.998,19.421,1.106,29.148c0.89,10.484,0.125,21.042,1.322,31.51c0.615,22.015,2.835,43.988,6.701,65.679
		c2.461,12.155,5.263,24.559,11.806,35.259c8.513,13.859,20.984,24.676,33.787,34.452c11.631,8.247,23.578,16.062,36.049,22.988
		c12.612,7.931,26.745,13.51,41.436,16.046c7.316,1.638,14.774,2.702,22.273,2.935c11.265,1.43,22.639,1.006,33.962,0.732
		c3.126-0.274,5.695,1.829,8.247,3.334c1.896,2.993,2.195,7.009,0.266,10.076c-3.334,5.354-7.956,9.76-12.521,14.059
		c-3.666,3.533-8.372,5.836-11.706,9.736c-2.32,2.735-5.13,4.963-7.981,7.125c-3.974,3.026-7.615,6.967-12.729,7.981
		c-14.175,3.325-28.151,7.399-42.259,10.966c-5.071,1.355-10.301,1.962-15.514,2.436c-15.447-0.948-30.861-2.511-46.333-2.86
		c-12.221,0.249-24.401-0.923-36.589-1.555c-5.246-0.158-10.575,0.316-15.73-0.881c-12.479-2.877-25-5.529-37.512-8.256
		c-4.19-0.557-5.778-4.988-7.449-8.256c-1.347-2.178,0.091-4.506,1.147-6.427c1.48-1.904,3.018-3.816,3.982-6.036
		c-2.902-8.763-5.371-17.684-7.807-26.579c0.416-8.322,1.255-16.619,1.571-24.941c0.457-4.007,0.898-8.023,1.796-11.947
		c0.823-1.796,2.527-2.91,3.833-4.323c1.172-18.731-0.848-37.504-2.877-56.11c-2.627-18.964-6.543-37.944-14.117-55.603
		c-6.834-19.147-14.383-38.052-21.084-57.257c-4.747-13.751-9.686-27.494-12.978-41.677c-2.112-11.88-4.972-23.694-5.587-35.791
		c-2.128-20.444-1.521-41.037-1.222-61.556c1.937-16.786-3.301-34.245-14.242-47.123c-5.67-6.51-11.614-12.886-18.606-17.991
		c-21.84-17.293-43.731-34.569-64.457-53.2c-5.745-4.448-10.675-9.844-16.436-14.225c-4.448,6.901-8.081,14.308-12.18,21.425
		c-23.237,41.444-45.959,83.197-70.917,123.643c-7.532,12.03-15.497,24.21-26.812,33.047c-5.213,4.215-11.806,6.144-18.282,7.374
		c-9.245,0.383-18.515-0.066-27.569-2.037c-16.852-3.741-33.563-8.123-50.058-13.211c-35.026-10.509-70.102-20.884-105.793-28.915
		c-35.458-8.098-71.308-14.549-107.381-19.138c-3.267-0.283-6.526-0.673-9.794-0.898c-11.357-1.563-22.855-1.821-34.303-1.629
		c-15.356,0.108-30.512,4.714-43.847,12.221c-8.813,4.44-17.65,8.846-26.338,13.552c-5.221,2.719-10.317,5.87-16.104,7.258
		c-9.602,2.502-18.989,5.728-28.367,8.954c-11.972,3.667-22.348,11.041-32.216,18.54c-10.259,8.023-20.078,16.594-29.298,25.789
		c-3.317,2.985-6.235,6.402-9.669,9.245c-3.118,1.023-5.778-1.787-8.023-3.542c-5.845-4.947-7.225-13.219-5.795-20.41
		c3.766-17.143,7.499-34.328,12.828-51.064c2.295-6.975,4.747-13.992,8.896-20.111c8.863-15.539,20.918-28.882,32.524-42.367
		c9.927-11.382,19.986-22.647,30.37-33.621c11.373-12.155,22.547-24.634,35.542-35.118c4.132-3.292,8.846-7.275,14.483-6.701
		c2.253-0.033,3.251,2.228,4.631,3.608c2.511,1.297,5.288,2.12,7.599,3.816c12.837,9.345,25.282,19.213,38.044,28.658
		c14.208,11.323,32.474,17.151,50.598,16.536c8.272,0.15,16.561-0.1,24.825,0.457c20.51,0.05,41.012,0.341,61.522,0.54
		c15.148,0.865,30.345-1.272,45.044-4.872c5.462-1.189,10.758-3.567,16.478-2.901c7.291-0.507,14.391,1.322,21.391,3.101
		c6.817,1.771,13.51,4.007,20.045,6.643c16.985,6.285,33.979,12.537,50.939,18.897c3.176,1.097,6.343,2.469,9.744,2.702
		c1.954-0.341,1.48-2.852,1.979-4.265c8.904-36.706,18.058-73.361,27.086-110.042c0.973-4.298,2.552-8.513,2.386-12.986
		c-0.141-2.527,1.33-5.429-0.557-7.557c-3.666-4.772-6.094-11.232-3.675-17.11c7.607-21.558,18.989-41.511,29.913-61.497
		c0.923-1.854-0.648-3.567-1.438-5.121c-9.627-16.303-13.942-35.417-13.41-54.264c0.624-6.676,1.039-13.394,2.586-19.945
		c1.164-3.309-0.599-7.009-3.251-9.037c-4.747-4.032-7.931-9.478-10.983-14.815c-2.727-5.013-5.146-10.334-5.853-16.046
		c-0.432-8.472,0.599-17.06-1.056-25.449c-1.347-7.599-4.406-14.824-8.164-21.516c-10.5-15.081-20.253-30.661-30.811-45.693
		c-5.87-8.829-11.856-17.575-17.717-26.396c-11.49-16.345-20.901-34.078-29.098-52.269c-9.478-24.218-18.964-48.844-22.081-74.841
		c-0.175-8.364-1.239-17.11,1.804-25.116c2.07-4.988,5.936-8.954,9.952-12.446c11.947-9.503,24.667-17.974,36.947-27.028
		c14.641-10.608,29.331-21.159,44.155-31.518c6.061-4.223,12.072-8.538,18.398-12.354c10.243-5.529,20.535-10.966,30.761-16.536
		c8.247-3.999,16.436-8.264,23.869-13.668c8.256-5.562,16.387-11.315,24.667-16.844c7.391-3.409,15.189-5.811,22.722-8.871
		c14.275-5.753,28.633-11.307,42.941-16.969c10.135-3.799,19.787-9.045,28.234-15.83c8.239-6.418,14.408-15.938,15.48-26.463
		c0.54-8.663-0.291-17.55-3.774-25.582c-4.39-9.844-9.27-19.504-12.67-29.739c-7.599-28.092-8.231-58.338-0.025-86.372
		c1.962-6.418,4.39-12.778,8.272-18.307C863.62,47.359,875.152,40.068,887.448,36.185 M908.274,35.113
		c-12.105,1.014-24.227,4.09-34.719,10.367c-7.507,4.897-13.651,11.88-17.534,19.961c-8.023,14.316-10.317,31.002-10.883,47.164
		c-0.931,6.593,0.374,13.186,0.333,19.795c1.23,8.588,1.347,17.409,3.982,25.748c2.278,8.031,6.069,15.505,9.062,23.27
		c1.721,4.282,3.891,8.355,5.737,12.579c1.488,3.392,1.846,7.15,3.168,10.6c2.918-2.527,5.612-5.387,9.004-7.324
		c6.277-3.858,13.66-5.005,20.859-5.828c2.519-0.574,5.728-0.341,7.541-2.469c0.017-1.912-1.214-3.483-2.328-4.897
		c-3.666-4.365-7.491-8.596-11.215-12.895c-3.641-4.647-7.524-9.935-7.125-16.162c-0.374-6.294,3.833-11.756,8.33-15.672
		c5.296-3.467,11.249-7.74,17.941-6.335c5.204,1.896,8.571,6.884,10.409,11.905c3.417,7.632,5.263,16.137,10.326,22.921
		c2.885,3.143,6.984-0.224,8.339-3.168c2.494-6.169-2.71-12.23-0.906-18.482c1.322-5.67,6.377-9.104,10.692-12.471
		c8.156-5.761,17.06-10.367,26.072-14.641c7.632-3.841,15.663-6.834,23.753-9.561c6.36-1.871,13.036-3.758,19.712-2.602
		c1.538,0.166,3.109,0.648,4.681,0.424c2.236-1.322,4.198-3.084,6.543-4.265c1.837-1.122,4.19-1.912,5.155-4.024
		c1.846-3.766,1.571-8.139,1.197-12.205c-1.222-9.395-5.313-18.224-10.766-25.898c-6.418-8.181-15.713-13.643-25.39-17.093
		c-13.244-4.847-27.411-5.836-41.262-7.715C942.128,34.889,925.143,32.968,908.274,35.113 M996.558,113.62
		c-6.967,2.527-13.859,5.279-20.494,8.58c-8.996,4.248-17.908,8.838-25.898,14.815c-3.966,2.436-7.582,5.919-8.796,10.55
		c-1.23,5.886,3.666,11.448,1.455,17.268c-1.621,4.132-5.703,8.256-10.525,7.183c-3.708-1.023-5.529-4.814-7.225-7.923
		c-2.91-6.676-5.429-13.518-8.164-20.269c-1.363-3.334-3.741-6.526-7.241-7.773c-2.145-0.998-4.44,0.141-6.518,0.74
		c-7.216,2.486-13.884,8.123-15.746,15.755c-1.272,6.161,2.37,11.831,6.052,16.428c4.539,5.919,10.742,10.617,14.075,17.426
		c1.222,2.419,0.233,5.337-2.311,6.36c-5.919,2.494-12.529,2.012-18.689,3.533c-6.842,1.114-12.679,5.421-17.035,10.633
		c-0.89,1.114-2.07,2.278-1.771,3.841c0.166,3.883-0.283,7.749-0.823,11.589c-0.333,2.428-1.679,4.647-1.663,7.125
		c6.252,3.417,12.737,7.399,16.112,13.951c2.785,5.919,4.573,12.28,7.674,18.066c4.847,9.578,12.122,17.825,20.693,24.251
		c4.822,3.874,10.559,7,16.811,7.557c7.64-0.083,13.976-5.163,18.731-10.692c0.914-1.646,0.939-3.7,2.228-5.188
		c4.182-5.853,7.516-12.296,11.897-17.991c10.941-0.341,21.907-0.399,32.848-0.948c4.448,0.1,9.852-0.416,12.745-4.223
		c1.771-5.155,0.574-10.758,1.081-16.087c2.66-4.24,7.341-6.851,9.877-11.182c1.164-2.777-3.367-4.282-2.311-7.025
		c1.912-1.904,4.955-2.594,6.269-5.096c-0.141-4.581-1.255-9.353-0.05-13.851c4.515-4.398,9.885-7.873,14.815-11.822
		c1.23-1.089,3.508-2.195,2.586-4.19c-1.787-6.127-7.108-10.193-10.766-15.164c-2.86-3.999-7.092-7.374-8.305-12.304
		c1.014-4.789,3.4-9.253,4.074-14.117c-0.665-5.52-1.131-11.074-1.746-16.603c-0.682-4.107-0.89-8.306-0.491-12.454
		c0.083-1.546,0.923-3.134,0.274-4.656C1012.18,109.064,1004.141,110.877,996.558,113.62 M860.345,236.823
		c-3.658,5.961-9.578,9.868-14.898,14.192c-7.399,4.739-14.99,9.278-23.212,12.462c-14.142,5.604-28.267,11.265-42.542,16.511
		c-6.792,2.162-13.344,4.963-20.02,7.449c-6.859,3.342-12.703,8.38-19.122,12.462c-7.965,5.105-15.389,11.132-24.077,15.023
		c-10.542,5.454-20.901,11.257-31.426,16.744c-7.94,3.924-14.79,9.594-22.09,14.533c-4.972,3.999-10.733,6.859-15.58,11.024
		c-12.945,9.245-26.08,18.232-38.9,27.652c-9.378,6.003-18.274,12.72-27.319,19.197c-6.651,4.639-12.246,11.456-13.643,19.629
		c-1.305,9.411-0.066,18.906,1.463,28.209c3.5,15.223,7.499,30.387,13.31,44.92c1.929,4.814,3.234,9.852,5.313,14.607
		c7.316,16.969,15.963,33.355,25.864,48.96c10.933,15.705,21.225,31.85,32.208,47.53c7.358,11.689,15.173,23.096,22.93,34.536
		c0.233,0.15,0.707,0.449,0.939,0.599c2.453-2.552,4.348-5.645,7.167-7.848c11.681-10.758,27.244-15.43,41.278-22.173
		c0.15-1.139-1.056-1.804-1.588-2.635c-5.271-5.529-10.484-11.107-15.539-16.827c-6.094-7.499-12.321-15.281-15.164-24.675
		c-1.497-5.479-4.847-10.11-7.524-15.023c-5.146-8.621-8.505-18.157-11.265-27.76c-5.171-17.509-8.979-35.375-12.388-53.292
		c-1.28-6.917-3.026-13.934-2.378-21.001c0.316-4.506,3.799-7.798,7.383-10.085c7.84-5.022,16.786-7.84,25.44-11.116
		c9.295-3.284,18.531-6.767,28.034-9.428c32.765-11.007,65.746-21.342,98.685-31.8c1.663-0.54,3.567-1.106,5.071,0.166
		c-0.69,1.563-2.286,2.253-3.824,2.685c-24.451,7.541-48.744,15.597-73.153,23.27c-0.956,0.333-1.954,0.648-2.644,1.422
		c0.831,3.134,2.245,6.102,2.918,9.295c0.524,1.58,0.524,3.558,1.987,4.622c-0.008,2.17,0.557,4.282,1.189,6.352
		c3.866,13.992,5.446,28.483,7.017,42.874c0.191,5.853,1.571,11.598,1.455,17.467c1.646,26.579,2.345,53.3,0.066,79.863
		c-1.006,9.586-2.303,19.247-5.595,28.35c-0.914,2.436-2.253,4.731-2.694,7.324c-2.793,3.4-5.545,6.826-8.621,9.993
		c6.185,7,14.366,11.955,20.51,19.039c8.073,7.408,13.078,17.318,17.75,27.062c3.267,7.399,10.816,12.188,13.136,20.094
		c0.89,3.666,0.998,8.912-3.051,10.742c-6.368,1.189-12.695-1.912-17.451-5.961c-4.922-3.883-7.857-9.561-10.758-14.973
		c-1.131-1.962-1.837-4.39-3.883-5.604c-2.785,1.513-3.716,4.855-4.049,7.79c-0.823,6.244,1.954,12.105,3.342,18.058
		c0.748,4.232,1.131,9.187-1.862,12.687c-3.301,4.124-8.172,6.618-13.011,8.472c-12.022,4.223-25.033,4.423-37.578,3.118
		c-1.131,2.211-1.048,4.797-1.388,7.216c-0.432,4.822-1.646,9.569-1.671,14.441c-0.017,3.567-0.856,7.158-0.15,10.7
		c4.922,0.657,9.893-0.175,14.84-0.125c6.659,0.058,13.244-1.222,19.912-1.081c9.154,0.133,18.274-0.948,27.386-1.671
		c8.646-0.042,17.168-1.987,25.823-1.688c11.082,0.017,22.223-0.565,33.239,0.881c20.568,1.92,40.738,6.643,60.841,11.232
		c8.871,1.962,17.584,4.647,26.463,6.576c-1.422-6.767-2.777-13.552-4.34-20.294c-1.488-9.719-2.461-19.621-1.397-29.431
		c1.405-21.566,7.034-42.625,14.258-62.911c1.688-5.82,4.099-11.39,6.377-16.993c7.383-16.37,15.688-32.399,26.089-47.073
		c3.916-5.155,5.903-11.373,8.572-17.193c7.383-17.417,15.023-34.744,21.558-52.51c6.568-17.559,10.434-35.941,15.796-53.865
		c1.455-8.63,0.091-17.451,0.69-26.139c1.039-5.753,5.47-10.018,8.015-15.115c6.077-9.985,5.894-22.04,5.811-33.322
		c-0.249-2.211,0.249-4.581-0.632-6.668c0.125-6.909,0.224-13.842-0.49-20.718c-0.1-8.414-0.042-16.819-0.856-25.191
		c0.274-5.271-1.463-10.401-3.084-15.339c-2.195-5.928-5.437-11.49-9.952-15.946c-11.465-11.822-25.582-20.618-39.906-28.508
		c-3.974,3.234-7.025,7.615-11.639,10.076c-5.612,3.708-12.961,4.348-19.163,1.821c-8.089-3.093-14.516-9.178-20.693-15.048
		c-7.366-7.557-12.961-16.769-16.461-26.721c-2.137-5.47-3.858-11.698-8.796-15.372c-2.777-2.095-5.545-4.323-8.813-5.595
		C862.307,232.94,861.617,235.26,860.345,236.823 M719.026,422.288c-16.636,5.62-33.413,10.908-49.617,17.725
		c-4.207,1.904-8.53,3.941-11.797,7.283c-2.81,2.985-2.719,7.383-2.32,11.199c2.153,15.721,5.944,31.152,9.328,46.632
		c4.099,16.029,7.923,32.449,16.17,46.957c2.286,4.323,5.371,8.256,6.942,12.936c1.679,4.772,3.276,9.644,6.119,13.884
		c5.828,8.929,12.953,16.927,20.361,24.567c4.099,5.03,9.129,9.145,13.743,13.676c1.289,1.122,2.436,2.519,4.032,3.251
		c4.772-2.486,7.499-7.582,10.002-12.146c2.087-5.155,3.608-10.525,4.739-15.971c3.957-21.807,3.417-44.088,3.251-66.161
		c0.091-8.987-0.881-17.933-1.056-26.912c-1.937-24.626-4.049-49.617-12.163-73.112c-0.757-2.777-1.305-5.928-3.159-8.156
		C728.621,418.937,723.956,421.107,719.026,422.288 M981.643,511.179c-7.615,25.149-18.856,48.977-28.982,73.162
		c-0.648,1.023,0.357,1.779,0.981,2.478c6.759,7.591,16.935,11.614,26.945,12.28c16.071,1.023,32,3.641,48.021,5.238
		c4.174,0.732,8.389,1.239,12.629,1.264c-1.48-2.602-3.458-4.889-4.764-7.591c-3.641-7.117-3.084-15.613-0.989-23.112
		c1.945-7.832,4.947-15.347,8.014-22.788c0.258-1.072,1.073-2.236,0.599-3.334c-8.015-0.432-15.613-3.276-22.979-6.244
		c-13.261-5.853-25.798-14.358-34.195-26.363c-1.846-2.478-2.519-5.537-3.883-8.247
		C982.467,508.951,982.009,510.057,981.643,511.179 M1085.649,541.25c-5.969,1.33-11.889,2.918-17.85,4.273
		c-6.576,1.314-12.936,3.783-19.712,3.708c-2.461,4.331-3.949,9.145-5.504,13.859c-2.752,7.275-5.229,14.799-5.778,22.605
		c0.083,4.972,1.28,10.168,4.415,14.133c1.796,2.311,3.084,5.196,5.637,6.801c7.557,0.648,15.081,1.704,22.614,2.644
		c14.724,3.284,29.09,8.089,43.282,13.186c1.405,0.333,2.769-0.565,3.982-1.197c3.882-2.719,6.111-7.108,7.898-11.373
		c2.885-7.408,4.531-15.231,5.886-23.046c0.54-9.162,0.449-18.681-3.342-27.219c-2.61-6.343-7.765-11.556-14.092-14.217
		C1104.505,541.666,1094.928,540.469,1085.649,541.25 M694.974,626.866c-8.788,4.523-17.958,9.627-23.146,18.407
		c-1.713,1.987,0.291,4.298,0.84,6.352c4.273,10.758,3.916,22.481,3.816,33.846c0.64,5.47,2.145,10.908,4.847,15.746
		c4.115,7.582,8.987,15.58,17.118,19.363c4.132,1.164,8.497,0.806,12.753,0.89c10.159-0.723,20.785-1.713,29.73-7.067
		c2.976-1.588,5.795-4.057,6.56-7.474c1.056-8.247-4.132-15.705-3.725-23.919c0.141-3.907,1.031-8.106,3.899-10.941
		c1.713-2.178,5.811-2.095,7.092,0.516c2.993,4.805,5.803,9.735,8.813,14.541c3.883,5.537,10.135,9.328,16.811,10.384
		c1.862,0.008,3.749-1.787,3.475-3.741c-0.216-4.581-2.436-8.904-5.795-11.989c-6.875-6.535-9.403-15.979-14.416-23.786
		c-7.009-13.327-19.762-21.89-30.545-31.859c-4.257-3.226-7.624-7.466-12.005-10.525
		C712.126,618.669,703.563,622.867,694.974,626.866 M768.544,755.323c-10.018,0.133-19.912,2.062-29.946,1.97
		c-6.111-0.125-12.13,1.255-18.241,1.039c-2.087,0.05-4.265-0.274-6.26,0.491c-4.049-0.931-8.289-0.574-12.363,0.017
		c-2.236-0.549-4.606-0.54-6.784,0.191c-0.299,4.381,0.108,8.796,1.131,13.069c1.596,8.081,4.448,15.913,8.405,23.146
		c4.672,7.956,9.353,15.938,14.898,23.345c8.804,10.841,17.201,22.048,26.554,32.44c10.966,12.837,22.148,25.498,33.821,37.695
		c3.675,4.623,8.081,8.572,11.955,13.028c2.078,2.685,5.795,2.611,8.763,3.683c16.885,5.246,35.143,3.617,51.878-1.413
		c17.933-5.304,35.284-12.396,52.369-19.97c6.742-2.428,13.069-5.836,19.637-8.696c8.538-3.874,17.01-7.923,25.44-12.022
		c1.222-0.416,0.69-1.879,0.224-2.652c-8.888-15.613-17.517-31.376-25.848-47.289c-6.718-12.205-12.529-24.867-18.116-37.612
		c-0.757-2.602-3.783-2.71-5.936-3.359c-22.273-5.712-44.662-11.099-67.342-14.957C811.576,753.984,789.927,753.037,768.544,755.323
		 M708.094,808.64c-4.722,7.724-8.588,15.921-12.728,23.96c-3.957,7.773-8.039,15.489-11.44,23.528
		c-2.619,5.52-4.88,11.249-6.277,17.21c0.058,3.442,1.322,7.216,3.766,9.686c4.448-0.524,8.563-2.519,12.995-3.209
		c8.089-1.846,16.545-0.781,24.343,1.821c6.593,1.704,12.762,4.648,18.731,7.882c15.447,8.497,29.872,18.706,44.213,28.932
		c11.806,8.638,23.545,17.368,34.951,26.546c0.765,0.441,1.471,1.322,2.461,1.264c1.621-2.502,3.251-5.088,4.174-7.94
		c-0.715-0.939-1.546-1.763-2.369-2.569c-11.323-10.85-22.073-22.289-32.873-33.654c-4.606-4.29-8.314-9.395-12.737-13.851
		c-18.024-19.205-35.433-39-51.77-59.668c-3.741-4.864-6.967-10.11-10.899-14.824C711.12,812.065,710.23,809.621,708.094,808.64
		 M921.077,880.321c-14.258,5.978-28.242,12.637-42.733,18.066c-17.343,6.718-35.325,12.853-54.073,13.543
		c-8.754,0.432-17.301-1.771-25.773-3.575c1.837,3.001,4.88,5.047,7.15,7.732c22.04,22.946,46,43.947,70.576,64.116
		c13.053,10.808,26.571,21.051,39.649,31.834c6.593,6.177,12.903,12.853,17.65,20.585c8.139,12.853,10.941,28.566,9.536,43.581
		c-0.017,14.682-0.175,29.373-0.141,44.063c0.732,12.08,1.912,24.16,4.124,36.082c1.33,6.327,1.929,12.795,3.65,19.055
		c8.43,29.414,19.72,57.889,30.196,86.613c2.544,7.383,6.052,14.408,8.123,21.957c2.976,9.478,5.13,19.197,6.892,28.974
		c3.284,20.41,5.063,41.07,5.246,61.738c-0.208,3.775,0.266,8.422-3.159,10.933c0.125,0.241,0.366,0.723,0.482,0.964
		c9.927,6.069,20.053,12.18,31.351,15.339c7.882,2.037,16.486,1.97,24.044-1.264c9.877-4.099,18.523-10.617,26.396-17.758
		c2.985-3.093,6.734-5.52,9.22-9.062c-3.75-3.75-8.189-6.742-11.806-10.633c-10.442-9.71-19.405-21.441-23.861-35.118
		c-5.288-16.445-7.707-33.629-9.669-50.731c-0.399-9.436-1.871-18.806-1.746-28.267c-0.89-12.171-1.513-24.368-1.679-36.581
		c-1.339-19.089-1.538-38.227-2.827-57.324c-0.366-17.742-1.937-35.442-1.787-53.208c0.042-11.706-0.208-23.586,2.469-35.059
		c1.289-7.058,7.183-11.797,10.209-18.049c1.455-2.561,1.147-5.604,1.688-8.405c0.457-5.271,0.382-10.617-0.374-15.854
		c-0.283-2.419-0.175-5.121-1.663-7.167c-23.412-26.879-41.469-57.781-59.519-88.351c-3.7-6.801-8.064-13.211-11.506-20.153
		c-4.972-8.605-9.91-17.243-14.882-25.856c-3.641-5.653-6.319-11.905-10.143-17.426C941.97,870.578,931.503,875.424,921.077,880.321
		 M687.667,883.913c-1.33,0.607-3.217,0.599-4.032,1.921c-0.407,4.398-0.025,8.863-0.865,13.227
		c-9.802,40.638-19.77,81.234-29.389,121.906c-0.732,1.746-2.611,2.902-4.514,2.669c-4.631,0.474-8.63-2.195-12.82-3.65
		c-8.863-3.217-17.55-6.901-26.405-10.135c-17.492-6.177-34.852-12.994-53.017-16.977c-5.695-0.682-11.523-1.521-17.168-0.05
		c-10.592,2.91-21.317,5.446-32.233,6.693c-7.582,1.472-15.331,0.732-22.996,0.856c-24.941-0.083-49.875-0.89-74.816-0.998
		c-9.553-0.125-19.222,0.491-28.616-1.604c-7.757-0.981-14.857-4.356-21.957-7.358c-5.121,4.938-10.143,10.018-14.99,15.239
		c-9.07,10.243-18.681,21.134-21.641,34.893c-1.488,9.104-3.226,18.531-1.072,27.668c6.817-3.666,14.158-6.219,21.658-8.114
		c11.573-1.979,23.412-3.326,35.134-2.02c5.587,0.116,11.182,0.291,16.727,1.006c6.294,0.715,12.662,0.574,18.872,1.904
		c9.328,0.939,18.54,2.677,27.818,4.007c40.181,6.51,80.087,14.915,119.195,26.255c32.59,8.804,65.047,18.149,97.563,27.228
		c10.467,3.218,21.391,4.864,32.316,5.238c9.004,0.249,18.282-2.278,25.257-8.131c4.647-4.232,8.987-8.796,12.745-13.843
		c10.583-14.217,19.055-29.822,28.325-44.886c7.682-13.119,15.139-26.363,22.838-39.474c3.317-6.801,7.208-13.277,10.891-19.887
		c9.021-15.821,17.767-31.809,26.613-47.721c-1.58-2.602-4.614-3.874-6.792-5.919c-13.685-10.476-27.286-21.084-41.511-30.819
		c-12.421-8.596-25.05-17.01-38.584-23.778c-8.272-3.924-17.118-7.482-26.438-7.225C698.333,881.801,692.83,882.067,687.667,883.913
		 M294.132,946.89c-4.481,1.754-8.039,5.188-11.864,8.015c-10.401,9.519-20.485,19.429-29.813,30.021
		c-10.966,11.506-21.566,23.345-32.008,35.325c-9.453,10.575-18.565,21.483-26.937,32.948c-4.573,7.491-9.677,14.815-12.454,23.229
		c-6.485,18.665-10.916,37.961-14.907,57.291c-1.064,4.656-0.349,9.777,2.32,13.784c0.283-0.025,0.848-0.066,1.131-0.091
		c3.617-12.196,6.842-24.517,10.883-36.589c6.036-17.7,12.072-35.55,21.051-52.028c7.391-14.458,16.711-27.876,27.103-40.339
		c19.147-23.154,41.486-43.357,63.734-63.443c2.32-1.962,4.847-3.708,6.826-6.036C299.444,946.175,296.011,945.809,294.132,946.89
		 M285.278,965.372c-12.163,11.39-24.742,22.364-36.082,34.602c-12.255,12.82-23.994,26.255-33.729,41.12
		c-9.503,14.208-16.969,29.647-23.42,45.452c-4.789,13.743-9.877,27.411-13.685,41.478c-2.203,7.632-4.855,15.206-6.352,22.996
		c1.064,1.023,2.328,1.896,3.774,2.32c8.796-8.04,16.586-17.185,26.022-24.517c11.822-10.11,24.11-20.07,38.451-26.388
		c10.509-4.772,22.032-6.493,32.873-10.284c6.56-1.688,12.155-5.595,18.182-8.513c8.455-4.29,16.711-8.971,25.282-13.053
		c1.571-0.49,0.69-2.37,0.757-3.484c-1.563-16.287,1.23-33.671,10.858-47.214c4.93-7.358,10.874-13.976,17.01-20.336
		c3.284-3.658,7.167-6.792,10.193-10.65c-1.887-2.12-4.747-3.035-6.992-4.722c-13.36-9.178-25.997-19.355-38.634-29.481
		c-2.286-1.638-4.581-3.658-7.474-3.991C296.169,955.004,290.989,960.525,285.278,965.372 M1083.455,1384.43
		c-8.214,7.241-16.819,14.383-27.012,18.665c-7.241,3.267-15.505,4.606-23.312,2.843c-13.252-2.344-24.626-9.985-35.999-16.686
		l-0.815,0.158c-1.447,6.078-1.355,12.363-1.837,18.565c-0.058,4.98-1.339,9.927-0.815,14.915
		c2.137,8.214,4.789,16.287,6.751,24.559c0.366,1.172,0.715,2.835,2.178,3.118c5.936,1.405,11.856,2.893,17.85,4.049
		c10.151,1.796,20.12,4.506,30.254,6.402c15.954,3.226,31.992,6.044,48.154,7.956c18.797,2.078,38.027,2.935,56.675-0.881
		c23.669-4.797,45.418-16.528,64.465-31.102c5.67-4.257,11.523-8.355,16.711-13.186c-5.712-5.096-13.759-4.207-20.793-3.675
		c-10.234,0.091-20.51,0.457-30.695-0.673c-9.553-0.781-18.723-3.758-27.868-6.443c-8.829-3.068-17.185-7.316-25.307-11.897
		c-13.726-7.349-26.662-16.021-39.349-24.991C1089.241,1378.427,1086.564,1381.703,1083.455,1384.43 M1205.942,1450.5
		c-16.303,10.75-34.635,18.856-54.032,21.816c-1.962,0.341-4.107,0.075-5.903,1.031c-11.032,1.264-22.156,0.607-33.23,0.69
		c-2.677-1.056-5.712-0.324-8.48-1.056c-22.314-1.954-44.338-6.277-66.178-11.157c-9.594-2.062-19.213-4.016-28.708-6.476
		c-3.342-0.815-6.584-2.486-10.093-2.17c-1.172,1.871-2.295,3.766-3.467,5.653c1.197,2.852,2.469,5.861,4.473,8.264
		c12.437,2.461,24.808,5.279,37.246,7.74c5.828,1.497,11.88,0.698,17.825,0.881c4.448-0.224,8.846,0.673,13.302,0.532
		c5.03,0.083,10.093-0.316,15.098,0.432c17.176,0.524,34.319,1.954,51.463,3.301c2.195,0.199,4.423,0.083,6.576-0.457
		c18.191-4.755,36.473-9.287,54.564-14.416c4.506-2.943,8.497-6.593,12.853-9.744c6.676-4.888,13.244-9.952,19.147-15.771
		c3.484-3.458,7.283-7.008,8.854-11.797C1226.901,1435.435,1217.133,1444.024,1205.942,1450.5z"/>
	<path fill="#66615A" stroke="#66615A" d="M908.274,35.113c16.869-2.145,33.854-0.224,50.706,1.031
		c13.851,1.879,28.018,2.868,41.262,7.715c9.677,3.45,18.972,8.912,25.39,17.093c5.454,7.674,9.544,16.503,10.766,25.898
		c0.374,4.065,0.649,8.439-1.197,12.205c-0.964,2.112-3.317,2.902-5.155,4.024c-2.344,1.181-4.307,2.943-6.543,4.265
		c-1.571,0.224-3.143-0.258-4.681-0.424c-6.676-1.156-13.352,0.732-19.712,2.602c-8.089,2.727-16.12,5.72-23.753,9.561
		c-9.012,4.273-17.916,8.879-26.072,14.641c-4.315,3.367-9.37,6.801-10.692,12.471c-1.804,6.252,3.4,12.313,0.906,18.482
		c-1.355,2.943-5.454,6.31-8.339,3.168c-5.063-6.784-6.909-15.289-10.326-22.921c-1.837-5.022-5.204-10.01-10.409-11.905
		c-6.693-1.405-12.645,2.868-17.941,6.335c-4.498,3.916-8.705,9.378-8.33,15.672c-0.399,6.227,3.483,11.515,7.125,16.162
		c3.725,4.298,7.549,8.53,11.215,12.895c1.114,1.413,2.345,2.985,2.328,4.897c-1.812,2.128-5.022,1.896-7.541,2.469
		c-7.2,0.823-14.582,1.97-20.859,5.828c-3.392,1.937-6.086,4.797-9.004,7.324c-1.322-3.45-1.679-7.208-3.168-10.6
		c-1.846-4.223-4.016-8.297-5.737-12.579c-2.993-7.765-6.784-15.239-9.062-23.27c-2.635-8.339-2.752-17.16-3.982-25.748
		c0.042-6.609-1.264-13.202-0.333-19.795c0.565-16.162,2.86-32.848,10.883-47.164c3.883-8.081,10.026-15.065,17.534-19.961
		C884.047,39.203,896.169,36.127,908.274,35.113z"/>
	<path fill="#E7C699" stroke="#E7C699" d="M996.558,113.62c7.582-2.744,15.622-4.556,23.728-3.908
		c0.648,1.521-0.191,3.109-0.274,4.656c-0.399,4.149-0.191,8.347,0.491,12.454c0.615,5.529,1.081,11.082,1.746,16.603
		c-0.673,4.864-3.06,9.328-4.074,14.117c1.214,4.93,5.446,8.305,8.305,12.304c3.658,4.972,8.979,9.037,10.766,15.164
		c0.923,1.995-1.355,3.101-2.586,4.19c-4.93,3.949-10.301,7.424-14.815,11.822c-1.205,4.498-0.091,9.27,0.05,13.851
		c-1.314,2.502-4.356,3.193-6.269,5.096c-1.056,2.744,3.475,4.248,2.311,7.025c-2.536,4.331-7.216,6.942-9.877,11.182
		c-0.507,5.329,0.69,10.933-1.081,16.087c-2.893,3.808-8.297,4.323-12.745,4.223c-10.941,0.549-21.907,0.607-32.848,0.948
		c-4.381,5.695-7.715,12.138-11.897,17.991c-1.289,1.488-1.314,3.542-2.228,5.188c-4.755,5.529-11.091,10.608-18.731,10.692
		c-6.252-0.557-11.989-3.683-16.811-7.557c-8.572-6.427-15.846-14.674-20.693-24.251c-3.101-5.786-4.889-12.146-7.674-18.066
		c-3.375-6.551-9.86-10.534-16.112-13.951c-0.017-2.477,1.33-4.697,1.663-7.125c0.54-3.841,0.989-7.707,0.823-11.589
		c-0.299-1.563,0.881-2.727,1.771-3.841c4.356-5.213,10.193-9.519,17.035-10.633c6.161-1.521,12.77-1.039,18.689-3.533
		c2.544-1.023,3.533-3.941,2.311-6.36c-3.334-6.809-9.536-11.506-14.075-17.426c-3.683-4.598-7.324-10.268-6.052-16.428
		c1.862-7.632,8.53-13.269,15.746-15.755c2.078-0.599,4.373-1.738,6.518-0.74c3.5,1.247,5.878,4.44,7.241,7.773
		c2.735,6.751,5.254,13.593,8.164,20.269c1.696,3.109,3.517,6.9,7.225,7.923c4.822,1.072,8.904-3.051,10.525-7.183
		c2.212-5.82-2.685-11.382-1.455-17.268c1.214-4.631,4.83-8.114,8.796-10.55c7.99-5.978,16.902-10.567,25.898-14.815
		C982.699,118.9,989.591,116.148,996.558,113.62z"/>
	<g>
		<path fill="#518482" stroke="#518482" d="M998.861,428.565c6.077-9.985,5.894-22.04,5.811-33.322
			c-0.25-2.212,0.249-4.581-0.632-6.668c-0.207,1.696-0.465,3.392-0.673,5.105c-0.092-5.819,0.133-11.656,0.091-17.492
			c0.224-5.022-1.048-9.944-0.873-14.957c0.183-6.194-0.208-12.388,0.108-18.565c0.275-5.271-1.463-10.401-3.084-15.339
			c-2.195-5.928-5.438-11.49-9.952-15.946c-11.464-11.822-25.581-20.618-39.906-28.508c-3.974,3.234-7.025,7.615-11.639,10.076
			c-5.611,3.708-12.961,4.348-19.163,1.821c-8.089-3.093-14.516-9.178-20.693-15.048c-7.366-7.558-12.961-16.769-16.461-26.721
			c-2.137-5.47-3.858-11.697-8.796-15.372c-2.777-2.095-5.546-4.323-8.813-5.595c-1.879,0.906-2.569,3.226-3.841,4.789
			c-3.658,5.961-9.578,9.869-14.902,14.193c-7.399,4.738-14.99,9.278-23.212,12.462c-14.142,5.603-28.267,11.265-42.542,16.511
			c-6.793,2.161-13.344,4.963-20.02,7.449c-6.859,3.342-12.704,8.38-19.122,12.462c-7.965,5.105-15.389,11.132-24.077,15.023
			c-10.542,5.454-20.901,11.257-31.426,16.744c-7.94,3.925-14.79,9.595-22.09,14.533c-4.972,3.999-10.733,6.859-15.58,11.024
			c-12.944,9.245-26.08,18.232-38.9,27.652c-9.378,6.003-18.274,12.721-27.319,19.197c-6.651,4.639-12.246,11.457-13.643,19.629
			c-1.305,9.411-0.067,18.906,1.463,28.209c3.5,15.223,7.499,30.387,13.31,44.92c1.929,4.813,3.235,9.851,5.313,14.607
			c7.316,16.968,15.962,33.355,25.864,48.96c10.933,15.705,21.225,31.85,32.208,47.53c7.358,11.69,15.173,23.096,22.93,34.536
			c0.232,0.15,0.706,0.449,0.939,0.599c2.453-2.552,4.349-5.645,7.167-7.848c11.681-10.758,27.244-15.431,41.278-22.173
			c0.15-1.138-1.056-1.804-1.588-2.635c-5.271-5.528-10.484-11.107-15.539-16.827c-6.094-7.499-12.321-15.28-15.164-24.675
			c-1.496-5.479-4.847-10.109-7.524-15.023c-5.146-8.622-8.505-18.157-11.265-27.76c-5.172-17.509-8.979-35.376-12.388-53.292
			c-1.281-6.917-3.026-13.934-2.378-21.001c0.316-4.506,3.8-7.799,7.383-10.085c7.84-5.022,16.785-7.84,25.44-11.116
			c9.295-3.284,18.531-6.768,28.034-9.428c32.765-11.007,65.746-21.341,98.685-31.8c1.662-0.541,3.566-1.106,5.071,0.166
			c-0.69,1.563-2.286,2.253-3.824,2.685c-24.451,7.54-48.744,15.596-73.153,23.27c-0.956,0.333-1.954,0.649-2.644,1.422
			c0.831,3.134,2.245,6.102,2.918,9.295c0.524,1.579,0.524,3.558,1.987,4.622c0.64,0.765,1.671,1.272,1.821,2.378
			c8.056,30.179,9.578,61.539,11.274,92.566c0.008,17.658,0.382,35.359-1.821,52.909c-0.665,8.256-1.979,16.503-4.739,24.343
			c-1.322,3.5-1.895,7.649-5.096,10.035c-2.793,3.4-5.545,6.825-8.621,9.993c6.185,7.001,14.366,11.956,20.51,19.039
			c8.073,7.408,13.078,17.318,17.75,27.062c3.268,7.399,10.816,12.188,13.136,20.094c0.89,3.667,0.998,8.913-3.051,10.742
			c-6.369,1.189-12.695-1.912-17.451-5.961c-4.922-3.882-7.856-9.561-10.758-14.973c-1.131-1.963-1.838-4.39-3.883-5.604
			c-2.785,1.513-3.716,4.855-4.049,7.79c-0.823,6.244,1.954,12.105,3.342,18.058c0.749,4.232,1.131,9.187-1.862,12.687
			c-3.3,4.124-8.172,6.618-13.011,8.472c-12.021,4.224-25.032,4.423-37.578,3.118c-1.13,2.211-1.047,4.797-1.388,7.216
			c-0.432,4.822-1.646,9.569-1.671,14.441c-0.017,3.567-0.857,7.158-0.15,10.7c4.922,0.656,9.893-0.175,14.84-0.125
			c6.66,0.058,13.244-1.222,19.912-1.081c9.154,0.133,18.274-0.948,27.386-1.671c8.647-0.042,17.168-1.987,25.823-1.688
			c11.083,0.016,22.223-0.566,33.239,0.881c20.569,1.92,40.738,6.643,60.841,11.232c8.871,1.962,17.584,4.647,26.463,6.576
			c-1.422-6.767-2.777-13.552-4.34-20.294c-1.488-9.719-2.461-19.621-1.397-29.431c1.405-21.566,7.033-42.625,14.258-62.911
			c1.688-5.819,4.099-11.389,6.377-16.993c7.383-16.37,15.688-32.399,26.089-47.073c3.916-5.155,5.903-11.373,8.572-17.193
			c7.383-17.417,15.023-34.743,21.558-52.51c6.568-17.559,10.434-35.94,15.796-53.865c1.455-8.63,0.091-17.451,0.69-26.139
			C991.886,437.926,996.317,433.661,998.861,428.565z"/>
		<path fill="#518482" stroke="#518482" d="M1003.367,393.68c0.207-1.713,0.465-3.409,0.673-5.105
			c0.125-6.909,0.225-13.842-0.49-20.718c-0.099-8.414-0.041-16.819-0.856-25.191c-0.316,6.177,0.075,12.371-0.108,18.565
			c-0.175,5.013,1.097,9.935,0.872,14.957C1003.5,382.024,1003.276,387.86,1003.367,393.68z"/>
	</g>
	<path fill="#050505" stroke="#050505" d="M1533.856,358.28c1.156-0.906,3.184-1.472,4.174,0.008
		c10.866,11.847,21.649,24.21,28.566,38.859c1.962,3.226,1.355,7.033,1.447,10.625c0.058,14.965,0.05,29.938-0.216,44.903
		c-1.064,7.441-0.54,14.982-0.865,22.472c-1.322,7.749-0.798,15.705-1.945,23.487c-0.582,4.431-1.33,8.821-1.704,13.277
		c-0.05,2.552-2.187,4.223-3.966,5.728c-12.587,9.885-24.534,21.017-39.058,28.084c-5.404,1.638-11.232,0.59-16.677,2.078
		c-7.241,0.324-14.458,0.989-21.707,0.964c-7.499-0.1-14.957,0.798-22.456,0.574c-5.437,0.108-10.883-0.133-16.312,0.15
		c-2.203,5.853-2.303,13.161-7.449,17.409c-6.676,4.814-14.034,8.572-20.992,12.961c-5.271,2.386-10.06,5.653-15.256,8.189
		c-14.325,7.657-28.899,14.832-43.282,22.347c-30.379,17.334-59.702,36.423-88.426,56.368c-6.402,4.963-12.753,10.035-19.629,14.35
		c-10.451,6.127-21.475,12.662-33.862,13.285c-4.747,5.279-7.258,12.18-9.586,18.789c-1.222,4.864-3.093,9.619-3.267,14.691
		c-0.449,7.998-0.599,16.096,0.848,24.01c2.303,8.089,8.172,14.441,11.806,21.915c13.202,21.741,26.022,43.722,39.141,65.521
		c7.724,13.776,16.328,27.028,24.11,40.771c7.441,12.537,15.065,24.95,22.323,37.595c5.022,7.499,8.655,15.896,14.458,22.871
		c8.971,12.595,18.108,25.066,27.244,37.545c10.542,15.264,21.616,30.146,31.9,45.585c13.651,19.097,26.471,38.784,39.64,58.205
		c3.301,5.803,7.532,11.016,10.816,16.827c10.908,16.603,21.491,33.43,31.751,50.432c14,23.661,27.801,47.53,38.85,72.754
		c2.411,6.718,6.061,12.995,7.541,20.028c1.588,4.157,2.411,8.572,2.993,12.978c0.058,11.373-0.125,22.755-0.2,34.128
		c-0.856,5.495-0.582,11.074-0.707,16.619c-0.15,11.082-0.158,22.165-0.308,33.247c-1.023,11.057,0.358,22.256-1.297,33.247
		c-0.15,15.256-0.291,30.512-0.324,45.768c-0.008,1.222,0.033,2.478,0.266,3.716c7.482,0.008,14.932,0.723,22.414,0.798
		c9.494,1.405,19.172,1.272,28.733,2.386c4.797-0.241,9.42,1.081,14.192,1.314c5.495,0.441,10.966,1.671,16.503,1.18
		c-0.823,0.291-1.638,0.59-2.411,0.956c8.439,0.358,16.786,2.178,24.908,4.415c4.44,0.648,8.771,2.469,12.097,5.545
		c6.851,5.288,11.689,12.729,15.447,20.427c5.08,8.488,6.942,18.315,10.924,27.294c3.126,9.287,6.801,18.374,9.835,27.693
		c6.202,15.397,11.39,31.168,17.151,46.732c1.413,4.315,3.434,8.422,4.664,12.812c1.164,4.398,3.508,8.355,4.747,12.737
		c1.563,3.508,2.32,7.3,3.899,10.816c0.599,2.419,2.137,4.598,2.419,7.1c-0.424,0.233-1.28,0.707-1.704,0.948
		c-0.241,0.499-0.715,1.513-0.956,2.02c-2.461-7.05-4.997-14.067-7.682-21.026c-2.403-8.339-6.044-16.229-8.879-24.418
		c-2.86-8.738-6.585-17.168-9.212-25.981c-2.702-6.734-5.204-13.535-7.541-20.394c-6.161-15.938-11.398-32.208-17.733-48.071
		c-4.115-9.777-9.561-19.38-17.875-26.189c-4.747-3.791-10.841-4.963-16.586-6.402c-5.994-1.447-12.23-1.388-18.232-2.76
		c-7.341-1.596-14.849-1.97-22.298-2.66c-2.935-0.241-5.853-0.532-8.729-1.089c-3.941-0.74-7.956-0.374-11.922-0.657
		c-6.851-0.507-13.701-1.23-20.577-1.139c-7.25-0.765-14.499-1.496-21.799-1.197c-14.466-0.607-28.924-1.621-43.406-1.463
		c-13.327,0.033-26.662-0.349-39.973,0.291c-1.655-0.125-3.317-0.224-4.947-0.133c-6.476,0.773-13.028,0.939-19.438,2.12
		c-13.028,2.411-26.147,5.354-38.26,10.858c-3.758,1.771-7.399,3.841-10.575,6.526c-8.206,7.258-13.892,16.877-19.305,26.288
		c-0.973-0.798-1.796-1.929-3.126-1.945c-0.715,1.28-1.305,2.635-1.937,3.974c0.632-3.883,1.131-7.881,0.416-11.764
		c-6.102-1.147-12.354,0.258-18.473-0.632c-0.283-1.131-0.54-2.245-0.806-3.334c7.491,0.05,14.982-0.058,22.472,0.058l0.407,0.491
		c0,2.203-0.042,4.423,0.133,6.651c1.073-0.69,1.97-1.621,2.278-2.893c4.099-7.075,9.212-13.635,15.106-19.355
		c5.155-4.689,11.731-7.191,17.974-10.06c12.255-4.456,25.075-7.15,37.953-9.021c3.35-1.047,6.934-0.382,10.326-1.28
		c14.79-1.372,29.689-1.172,44.529-1.064c1.339-13.402,0.499-26.904,1.455-40.314c0.266-29.955,0.141-59.918-1.604-89.814
		c-1.389-6.842-0.724-13.951-1.979-20.818c-0.599-5.437-1.563-10.816-2.054-16.253c-1.871-8.281-3.284-16.777-6.967-24.493
		c-2.095-4.173-5.03-7.832-7.299-11.889c-6.285-9.552-12.271-19.296-18.54-28.849c-8.597-13.809-17.758-27.253-26.222-41.129
		c-3.583-4.822-6.252-10.226-9.835-15.023c-23.636-37.545-47.954-74.65-71.649-112.154c-16.736-25.964-33.322-52.028-50.024-78.017
		c-10.567-15.09-20.419-30.67-30.387-46.158c-3.508-6.111-7.782-11.739-11.091-17.958c-4.007-5.529-6.809-11.797-10.791-17.343
		c-12.196-21.25-24.476-42.484-35.251-64.507c-3.109-6.119-5.529-12.554-8.788-18.59c-4.173-11.448-10.243-22.397-11.681-34.652
		c0.058-7.79-0.848-15.763,1.039-23.387c0.823-8.081,3.018-16.037,6.676-23.295c3.567-9.021,9.411-17.002,16.386-23.694
		c3.932-3.691,7.74-7.649,12.487-10.309c0.1-4.972-1.463-10.026-0.116-14.998c1.405-4.905,3.425-9.785,6.892-13.626
		c6.568-7.366,15.065-12.845,24.085-16.744c3.567-1.837,7.05-3.841,10.575-5.778c5.786-2.344,10.791-6.152,16.403-8.846
		c7.283-4.631,14.973-8.572,22.181-13.335c8.114-4.947,16.312-9.794,24.276-15.006c6.385-3.7,11.955-8.596,18.049-12.745
		c13.543-10.492,27.785-20.045,41.503-30.304c-2.045-4.207-5.213-7.757-7.915-11.548c-4.764-6.651-9.902-13.036-14.433-19.837
		c1.546-2.045,3.957-3.109,5.969-4.614c13.768-8.887,27.261-18.207,41.153-26.912c27.278-18.282,54.88-36.04,82.232-54.206
		c13.327-8.505,26.347-17.467,39.674-25.956C1505.722,376.653,1519.98,367.749,1533.856,358.28 M1533.947,362.595
		c-6.302,4.29-12.637,8.538-19.138,12.512c-20.76,14.217-42.151,27.527-62.977,41.636c-26.721,17.376-53.192,35.134-79.979,52.394
		c-13.394,9.07-26.97,17.866-40.505,26.704c-1.048,1.006-3.176,1.521-3.026,3.259c1.222,1.821,2.486,3.625,3.691,5.471
		c1.987,0.989,3.475-1.272,5.055-2.12c54.88-36.323,109.859-72.455,164.697-108.845c13.003-8.33,25.665-17.185,38.751-25.374
		c0.773-1.397-0.69-2.527-1.438-3.508C1537.813,363.285,1535.984,361.023,1533.947,362.595 M1540.474,372.372
		c-13.202,8.713-26.388,17.442-39.582,26.155c-5.786,4.207-12.205,7.557-17.684,12.171l-0.424-0.133
		c-2.652,1.347-4.938,3.267-7.424,4.864c-4.448,3.409-9.652,5.745-13.801,9.544l-0.424-0.299
		c-6.335,4.39-12.762,8.663-19.213,12.886c-2.677,1.696-5.471,3.259-7.74,5.487c-0.914,0-1.638,0.624-2.344,1.072
		c-4.373,3.159-9.087,5.828-13.435,9.029c-3.833,2.835-8.464,4.639-11.714,8.214c-0.898-0.158-1.663,0.557-2.394,0.923
		c-6.526,4.282-12.953,8.721-19.454,13.028c-3.126,2.137-6.634,3.775-9.32,6.485c-3.159,1.397-5.944,3.475-8.813,5.354
		c-4.697,3.384-9.794,6.152-14.366,9.711c-2.835,2.261-6.526,3.384-8.863,6.235l-0.366-0.274c-2.652,1.763-5.487,3.317-7.798,5.52
		c1.879,3.592,4.722,6.535,7.025,9.844c1.929,2.635,3.55,5.52,5.803,7.915c2.544-0.233,4.307-2.411,6.418-3.65
		c8.023-5.537,16.237-10.808,24.093-16.569c3.824-1.862,6.992-4.789,10.692-6.876c4.057-2.278,7.715-5.213,11.847-7.366
		c1.106-0.632,2.494-0.59,3.666-0.1c3.234,1.33,6.061,3.758,9.603,4.323c2.378-1.455,4.24-3.608,6.526-5.213
		c2.187-1.837,4.872-3.134,6.609-5.471c6.227-3.883,12.014-8.513,18.773-11.515c5.978-3.334,13.144-3.542,19.77-2.561
		c5.969,1.339,10.675,5.728,14.158,10.567c0.424,1.887,1.147,3.691,1.837,5.512c1.555,4.381,1.929,9.054,2.112,13.668
		c-1.222,2.893-2.029,5.986-3.799,8.621c-1.513,2.494-3.658,4.489-5.512,6.709c-2.336,1.871-4.315,4.157-6.784,5.861
		c-4.647,4.124-10.293,6.884-14.965,10.933l-0.407-0.274c-2.137,1.056-4.165,2.311-6.21,3.508c-3.533,1.613-2.644,6.144-2.669,9.286
		c12.121,0.033,24.243-0.05,36.373,0.008c3.882,0.042,7.649-1.189,11.54-1.131c5.72-0.216,11.49-0.116,17.176-0.823
		c4.223-1.28,8.987-0.241,12.861-2.702c2.519-1.472,5.354-2.635,7.316-4.888c6.269-3.558,11.772-8.314,17.517-12.645
		c0.964-0.998,2.677-1.638,2.968-3.109c3.542-1.729,6.318-4.664,9.328-7.158c1.255-4.822,2.112-9.81,1.912-14.807
		c0.682-2.552,1.255-5.313,0.665-7.94c0.79-3.334-0.058-6.842,0.989-10.118c0.948-2.985,0.59-6.161,0.831-9.237
		c-0.15-1.214,0.399-2.66-0.374-3.7c0.831-3.858,1.014-7.948,0.316-11.831c0.848-10.101,1.754-20.244,0.956-30.387
		c0.507-7.965,0.216-15.987,0.141-23.969l-0.823,0.042c0.141-3.783-2.802-6.734-4.29-10.01c-4.531-7.083-9.262-14.183-15.131-20.228
		C1542.76,370.767,1541.604,371.707,1540.474,372.372 M1436.958,483.394c-5.163,3.01-9.569,7.075-14.366,10.6
		c-1.796,1.605-4.282,2.777-5.105,5.188c7.557,11.298,15.921,22.032,24.11,32.873c0.549,0.624,1.205,1.147,1.962,1.58
		c3.134-1.206,5.745-3.359,8.646-5.013c4.398-2.054,7.956-5.446,12.03-8.039c4.149-3.583,8.671-6.892,11.814-11.465
		c1.729-2.502,4.041-4.955,4.199-8.156c0.715-8.064-1.372-16.852-7.474-22.522c-4.506-4.024-10.899-4.24-16.603-3.716
		C1448.872,474.989,1442.845,479.587,1436.958,483.394 M1384.59,506.657c-12.637,8.705-25.573,16.968-37.886,26.122
		c-18.132,12.512-35.683,25.823-53.425,38.859c-27.926,18.033-56.484,35.168-86.181,50.132c-7.483,4.024-14.707,9.278-19.097,16.711
		c-3.866,5.828-4.173,13.443-2.511,20.045c4.381,6.518,9.777,12.28,14.849,18.266c3.899,4.706,8.447,8.813,12.645,13.252
		c1.047,1.521,2.827,0.673,4.281,0.374c3.326-0.898,6.851-1.164,10.01-2.652c11.166-4.448,21.25-11.091,30.886-18.182
		c3.841-2.486,6.909-5.978,10.899-8.264c26.13-18.265,53.1-35.325,80.561-51.537c13.618-7.707,27.943-14.059,41.619-21.658
		c14.208-7.433,28.442-14.94,41.727-23.935c2.777-1.521,3.267-4.872,4.24-7.582c1.222-3.5,2.078-7.133,2.344-10.833
		c0.116-2.752,1.255-5.362,1.322-8.098c-3.65-5.878-8.605-10.85-12.379-16.653c-3.5-4.29-6.468-8.979-9.91-13.31
		c-2.311-2.943-3.45-7.133-7.183-8.655c-2.885-1.156-5.545-2.852-8.472-3.824C1396.487,498.484,1390.717,502.874,1384.59,506.657
		 M1176.968,668.194c-10.974,8.838-19.529,20.701-23.927,34.12c-5.196,13.502-5.653,28.367-4.265,42.617
		c3.251,11.523,7.782,22.68,12.953,33.471c1.388,4.016,3.334,7.807,5.279,11.589c7.474,15.963,16.12,31.368,24.709,46.765
		c7.158,12.728,14.973,25.083,22.323,37.703c14.133,22.78,28.699,45.269,43.814,67.425c19.105,29.722,38.077,59.535,57.191,89.249
		c38.235,59.51,76.279,119.195,114.506,178.756c3.217,5.445,7.324,10.384,9.918,16.204c2.951,6.343,5.404,13.227,5.363,20.277
		c0.291-0.416,0.607-0.823,0.939-1.206c-0.25,3.932,1.696,7.507,1.771,11.398c0.449,5.021,1.422,10.001,1.488,15.065
		c1.721,7.873,1.364,16.029,1.962,24.052c0.524,5.246,0.383,10.534,0.499,15.813c0.416,22.439,0.432,44.886,0.241,67.334
		c-0.042,13.477-0.524,26.97-0.349,40.447c5.462,0.108,10.933-0.133,16.386,0.407c5.512,0.457,11.107-0.2,16.569,0.881
		c4.431,0.399,8.904,0.316,13.36,0.241c1.056-0.906,0.299-2.536,0.557-3.716c-0.058-14.973,0.698-29.93,0.765-44.903
		c-0.1-7.99,0.973-15.963,0.399-23.952c0.466-4.839,0.59-9.744,0.083-14.574l0.291,0.482l0.532-0.549
		c0.366-20.951,0.441-41.91,0.914-62.853c-0.283-7.782,1.289-15.904-1.555-23.37c-0.856-3.924-2.095-7.715-3.658-11.398
		c-3.982-11.523-9.195-22.605-14.965-33.339c-4.697-10.035-10.176-19.679-15.738-29.248c-15.996-28.708-33.995-56.193-51.687-83.853
		c-10.267-15.206-20.311-30.578-30.769-45.651c-3.084-3.675-5.005-8.148-8.164-11.772c-21.026-30.886-43.066-61.057-64.931-91.352
		c-2.976-3.051-4.506-7.083-6.809-10.583c-4.19-7.25-8.863-14.217-12.729-21.649c-11.032-17.825-21.325-36.074-32.291-53.94
		c-8.389-14.524-17.193-28.791-25.648-43.265c-8.713-14.358-16.994-28.982-25.831-43.265c-3.026-6.194-8.555-11.872-7.549-19.313
		c-0.308,0.79-0.624,1.58-0.939,2.369c-0.091-4.997-1.114-9.935-0.865-14.932c-0.108-7.599,1.322-15.106,3.65-22.306
		c2.087-7.466,5.471-14.516,9.777-20.951c-2.278-2.303-4.938-4.223-6.859-6.867c-6.817-7.233-13.31-14.774-19.479-22.572
		C1181.134,663.755,1179.296,666.531,1176.968,668.194z"/>
	<path fill="#8D9A9D" stroke="#8D9A9D" d="M1533.947,362.595c2.037-1.571,3.866,0.69,5.13,2.128
		c0.748,0.981,2.211,2.112,1.438,3.508c-13.086,8.189-25.748,17.043-38.751,25.374c-54.838,36.39-109.817,72.521-164.697,108.845
		c-1.58,0.848-3.068,3.109-5.055,2.12c-1.205-1.846-2.469-3.65-3.691-5.471c-0.15-1.738,1.979-2.253,3.026-3.259
		c13.535-8.838,27.111-17.634,40.505-26.704c26.787-17.26,53.258-35.018,79.979-52.394c20.826-14.109,42.218-27.419,62.977-41.636
		C1521.31,371.133,1527.646,366.884,1533.947,362.595z"/>
	<path fill="#5C9190" stroke="#5C9190" d="M742.039,430.859c0.64,0.765,1.671,1.272,1.821,2.378
		c8.056,30.179,9.577,61.539,11.274,92.566c0.008,17.659,0.382,35.359-1.821,52.909c-0.665,8.256-1.979,16.503-4.739,24.343
		c-1.322,3.5-1.896,7.649-5.096,10.035c0.441-2.594,1.779-4.888,2.694-7.324c3.292-9.104,4.589-18.764,5.595-28.35
		c2.278-26.563,1.58-53.283-0.066-79.863c0.116-5.87-1.264-11.614-1.455-17.467c-1.571-14.391-3.151-28.882-7.017-42.874
		C742.596,435.141,742.031,433.029,742.039,430.859z"/>
	<path fill="#E1E8EA" stroke="#E1E8EA" d="M1436.958,483.394c5.886-3.808,11.914-8.405,19.213-8.671
		c5.703-0.524,12.097-0.308,16.603,3.716c6.102,5.67,8.189,14.458,7.474,22.522c-0.158,3.201-2.469,5.653-4.199,8.156
		c-3.143,4.573-7.665,7.881-11.814,11.465c-4.074,2.594-7.632,5.986-12.03,8.039c-2.901,1.654-5.512,3.808-8.646,5.013
		c-0.757-0.432-1.413-0.956-1.962-1.58c-8.189-10.841-16.553-21.574-24.11-32.873c0.823-2.411,3.309-3.583,5.105-5.188
		C1427.389,490.469,1431.796,486.404,1436.958,483.394z"/>
	<path fill="#322C1E" stroke="#322C1E" d="M1384.59,506.657c6.127-3.783,11.897-8.173,18.34-11.423
		c2.927,0.973,5.587,2.669,8.472,3.824c3.733,1.521,4.872,5.712,7.183,8.655c3.442,4.331,6.41,9.02,9.91,13.31
		c3.775,5.803,8.73,10.775,12.379,16.653c-0.067,2.735-1.206,5.346-1.322,8.098c-0.266,3.7-1.122,7.333-2.344,10.833
		c-0.973,2.71-1.463,6.061-4.24,7.582c-13.286,8.996-27.519,16.503-41.727,23.935c-13.676,7.599-28.001,13.951-41.619,21.658
		c-27.461,16.212-54.431,33.272-80.561,51.537c-3.991,2.286-7.058,5.778-10.899,8.264c-9.636,7.092-19.72,13.734-30.886,18.182
		c-3.159,1.488-6.684,1.754-10.01,2.652c-1.455,0.299-3.234,1.147-4.281-0.374c-4.198-4.44-8.746-8.547-12.645-13.252
		c-5.071-5.986-10.467-11.747-14.849-18.266c-1.663-6.601-1.355-14.217,2.511-20.045c4.39-7.433,11.614-12.687,19.097-16.711
		c29.697-14.965,58.255-32.1,86.181-50.132c17.742-13.036,35.292-26.346,53.425-38.859
		C1359.016,523.625,1371.953,515.361,1384.59,506.657z"/>
	<path fill="#518482" stroke="#518482" d="M981.643,511.179c0.366-1.122,0.823-2.228,1.397-3.259c1.363,2.71,2.037,5.77,3.883,8.247
		c8.397,12.005,20.934,20.51,34.195,26.363c7.366,2.968,14.965,5.811,22.979,6.244c0.474,1.097-0.341,2.261-0.599,3.334
		c-3.068,7.441-6.069,14.957-8.014,22.788c-2.095,7.499-2.652,15.996,0.989,23.112c1.305,2.702,3.284,4.988,4.764,7.591
		c-4.24-0.025-8.455-0.532-12.629-1.264c-16.021-1.596-31.95-4.215-48.021-5.238c-10.01-0.665-20.186-4.689-26.945-12.28
		c-0.624-0.698-1.63-1.455-0.981-2.478C962.788,560.156,974.028,536.329,981.643,511.179z"/>
	<path fill="#32393D" stroke="#32393D" d="M1563.32,455.418c0.848-10.101,1.754-20.244,0.956-30.387
		c0.507-7.965,0.216-15.987,0.141-23.969l-0.823,0.042c0.141-3.783-2.802-6.734-4.29-10.01c-4.531-7.083-9.262-14.183-15.131-20.227
		c-1.413-0.1-2.569,0.84-3.7,1.505c-13.202,8.713-26.388,17.442-39.582,26.155c-5.786,4.207-12.205,7.557-17.684,12.171
		l-0.424-0.133c-2.652,1.347-4.938,3.267-7.424,4.864c-4.448,3.409-9.652,5.745-13.801,9.544l-0.424-0.299
		c-6.335,4.39-12.762,8.663-19.213,12.887c-2.677,1.696-5.471,3.259-7.74,5.487c-0.914,0-1.638,0.624-2.344,1.073
		c-4.373,3.159-9.087,5.828-13.435,9.029c-3.833,2.835-8.464,4.639-11.714,8.214c-0.898-0.158-1.663,0.557-2.394,0.923
		c-6.526,4.282-12.953,8.721-19.454,13.028c-3.126,2.137-6.634,3.775-9.32,6.485c-3.159,1.397-5.944,3.475-8.813,5.354
		c-4.697,3.384-9.794,6.152-14.366,9.711c-2.835,2.261-6.526,3.384-8.863,6.235l-0.366-0.274c-2.652,1.762-5.487,3.317-7.798,5.52
		c1.879,3.592,4.722,6.535,7.025,9.844c1.929,2.635,3.55,5.52,5.803,7.915c2.544-0.233,4.307-2.411,6.418-3.65
		c8.023-5.537,16.237-10.808,24.093-16.569c3.824-1.862,6.992-4.789,10.692-6.876c4.057-2.278,7.715-5.213,11.847-7.366
		c1.106-0.632,2.494-0.59,3.666-0.1c3.234,1.33,6.061,3.758,9.603,4.323c2.378-1.455,4.24-3.608,6.526-5.213
		c2.187-1.837,4.872-3.134,6.609-5.47c6.227-3.883,12.014-8.513,18.773-11.515c5.978-3.334,13.144-3.542,19.77-2.561
		c5.969,1.339,10.675,5.728,14.158,10.567c0.424,1.887,1.147,3.691,1.837,5.512c1.555,4.381,1.929,9.054,2.112,13.668
		c-1.222,2.893-2.029,5.986-3.799,8.622c-1.513,2.494-3.658,4.489-5.512,6.709c-2.336,1.871-4.315,4.157-6.784,5.861
		c-4.647,4.124-10.293,6.884-14.965,10.933l-0.407-0.274c-2.137,1.056-4.165,2.311-6.21,3.508c-3.533,1.613-2.644,6.144-2.669,9.286
		c12.121,0.033,24.243-0.05,36.373,0.008c3.882,0.042,7.649-1.189,11.54-1.131c5.72-0.216,11.49-0.117,17.176-0.823
		c4.223-1.28,8.987-0.241,12.861-2.702c2.519-1.472,5.354-2.635,7.316-4.889c6.269-3.558,11.772-8.314,17.517-12.645
		c0.964-0.998,2.677-1.638,2.968-3.109c3.542-1.729,6.318-4.664,9.328-7.158c1.255-4.822,2.112-9.81,1.912-14.807
		c0.682-2.552,1.255-5.313,0.665-7.94c0.79-3.334-0.058-6.842,0.989-10.118c0.948-2.985,0.59-6.161,0.831-9.237
		c-0.15-1.214,0.399-2.66-0.374-3.7C1563.836,463.391,1564.019,459.301,1563.32,455.418z"/>
	<path fill="#E7C699" stroke="#E7C699" d="M1085.649,541.25c9.278-0.781,18.856,0.416,27.436,4.157
		c6.327,2.66,11.481,7.873,14.092,14.217c3.791,8.538,3.883,18.058,3.342,27.219c-1.355,7.815-3.001,15.638-5.886,23.046
		c-1.787,4.265-4.016,8.655-7.898,11.373c-1.214,0.632-2.577,1.53-3.982,1.197c-14.192-5.096-28.558-9.902-43.282-13.186
		c-7.532-0.939-15.056-1.995-22.614-2.644c-2.552-1.605-3.841-4.49-5.637-6.801c-3.134-3.966-4.332-9.162-4.415-14.133
		c0.549-7.807,3.026-15.331,5.778-22.605c1.555-4.714,3.043-9.528,5.504-13.859c6.776,0.075,13.136-2.394,19.712-3.708
		C1073.761,544.169,1079.68,542.581,1085.649,541.25z"/>
	<path fill="#E7C699" stroke="#E7C699" d="M694.974,626.866c8.588-3.999,17.151-8.198,26.122-11.257
		c4.381,3.059,7.748,7.3,12.005,10.525c10.783,9.968,23.536,18.531,30.545,31.859c5.013,7.807,7.541,17.251,14.416,23.786
		c3.359,3.084,5.579,7.408,5.795,11.989c0.274,1.954-1.613,3.75-3.475,3.741c-6.676-1.056-12.928-4.847-16.811-10.384
		c-3.01-4.805-5.82-9.735-8.813-14.541c-1.28-2.611-5.379-2.694-7.092-0.516c-2.868,2.835-3.758,7.034-3.899,10.941
		c-0.407,8.214,4.78,15.672,3.725,23.919c-0.765,3.417-3.583,5.886-6.56,7.474c-8.946,5.354-19.571,6.344-29.73,7.067
		c-4.257-0.083-8.621,0.274-12.753-0.89c-8.131-3.783-13.003-11.781-17.118-19.363c-2.702-4.839-4.207-10.276-4.847-15.746
		c0.1-11.365,0.457-23.088-3.816-33.846c-0.549-2.054-2.552-4.365-0.84-6.352C677.017,636.494,686.187,631.389,694.974,626.866z"/>
	<path fill="#E1E8EA" stroke="#E1E8EA" d="M1176.968,668.194c2.328-1.663,4.165-4.44,7.233-4.714
		c6.169,7.798,12.662,15.339,19.479,22.572c1.921,2.644,4.581,4.564,6.859,6.867c-4.307,6.435-7.69,13.485-9.777,20.951
		c-2.328,7.2-3.758,14.707-3.65,22.306c-0.249,4.997,0.773,9.935,0.865,14.932c0.316-0.79,0.632-1.58,0.939-2.369
		c-1.006,7.441,4.523,13.119,7.549,19.313c8.838,14.283,17.118,28.907,25.831,43.265c8.455,14.474,17.26,28.741,25.648,43.265
		c10.966,17.866,21.258,36.115,32.291,53.94c3.866,7.432,8.538,14.399,12.729,21.649c2.303,3.5,3.833,7.532,6.809,10.583
		c21.865,30.296,43.905,60.467,64.931,91.352c3.159,3.625,5.08,8.098,8.164,11.772c10.459,15.073,20.502,30.445,30.769,45.651
		c17.692,27.66,35.691,55.146,51.687,83.853c5.562,9.569,11.041,19.213,15.738,29.248c5.77,10.733,10.983,21.816,14.965,33.339
		c1.563,3.683,2.802,7.474,3.658,11.398c2.843,7.466,1.272,15.588,1.555,23.37c-0.474,20.943-0.549,41.902-0.914,62.853
		l-0.532,0.549l-0.291-0.482c-0.865-13.734,0.158-27.552-0.574-41.278c-0.457,13.277-0.208,26.588-0.175,39.881
		c0.748,5.296,0.075,10.658,0.665,15.971c0.574,7.99-0.499,15.963-0.399,23.952c-0.067,14.973-0.823,29.93-0.765,44.903
		c-0.258,1.181,0.499,2.81-0.557,3.716c-4.456,0.075-8.929,0.158-13.36-0.241c-5.462-1.081-11.057-0.424-16.569-0.881
		c-5.454-0.541-10.924-0.299-16.386-0.407c-0.175-13.477,0.308-26.97,0.349-40.447c0.191-22.447,0.175-44.895-0.241-67.334
		c-0.116-5.279,0.025-10.567-0.499-15.813c-0.599-8.023-0.241-16.179-1.962-24.052c-0.067-5.063-1.039-10.043-1.488-15.065
		c-0.075-3.891-2.02-7.466-1.771-11.398c-0.333,0.382-0.649,0.79-0.939,1.206c0.042-7.05-2.411-13.934-5.363-20.277
		c-2.594-5.82-6.701-10.758-9.918-16.204c-38.227-59.56-76.271-119.245-114.506-178.756c-19.114-29.714-38.086-59.527-57.191-89.249
		c-15.115-22.156-29.68-44.645-43.814-67.425c-7.349-12.62-15.164-24.975-22.323-37.703c-8.588-15.397-17.234-30.803-24.709-46.765
		c-1.945-3.783-3.891-7.574-5.279-11.589c-5.171-10.791-9.702-21.948-12.953-33.471c-1.388-14.25-0.931-29.115,4.265-42.617
		C1157.439,688.896,1165.994,677.032,1176.968,668.194 M1497.026,1364.078c-0.133,11.556-0.133,23.121-0.05,34.677l0.665-0.233
		c0.432-4.589,0.424-9.22,0.116-13.809c-0.682-6.859,0.042-13.743-0.133-20.61L1497.026,1364.078z"/>
	<g>
		<path fill="#7E4746" stroke="#7E4746" d="M950.027,860.685c-8.888-15.613-17.518-31.376-25.848-47.289
			c-6.718-12.205-12.529-24.867-18.116-37.612c-0.756-2.602-3.783-2.711-5.936-3.359c-22.273-5.712-44.662-11.099-67.342-14.957
			c-21.209-3.484-42.858-4.431-64.241-2.145c-10.019,0.133-19.912,2.062-29.944,1.971c-6.111-0.125-12.13,1.255-18.241,1.039
			c-2.086,0.05-4.265-0.274-6.26,0.491c-3.974,1.538-8.322,0.931-12.363,0.017c-2.236-0.549-4.606-0.541-6.784,0.191
			c-0.299,4.381,0.108,8.796,1.131,13.069c1.596,8.081,4.448,15.913,8.405,23.146c4.672,7.956,9.353,15.937,14.898,23.345
			c8.804,10.841,17.201,22.048,26.554,32.44c10.966,12.837,22.148,25.499,33.821,37.695c3.674,4.623,8.081,8.572,11.955,13.028
			c2.079,2.685,5.795,2.611,8.763,3.683c16.885,5.246,35.142,3.617,51.878-1.413c17.933-5.304,35.284-12.396,52.369-19.97
			c6.742-2.427,13.069-5.836,19.637-8.696c8.538-3.874,17.01-7.923,25.44-12.022C951.025,862.921,950.493,861.458,950.027,860.685z"
			/>
		<path fill="#7E4746" stroke="#7E4746" d="M714.097,758.823c-4.049-0.931-8.289-0.573-12.363,0.017
			C705.774,759.754,710.122,760.361,714.097,758.823z"/>
	</g>
	<path fill="#7E4746" stroke="#7E4746" d="M708.094,808.64c2.137,0.981,3.026,3.425,4.539,5.113
		c3.932,4.714,7.158,9.96,10.899,14.824c16.337,20.668,33.746,40.463,51.77,59.668c4.423,4.456,8.131,9.561,12.737,13.851
		c10.8,11.365,21.549,22.805,32.873,33.654c0.823,0.806,1.654,1.629,2.369,2.569c-0.923,2.852-2.552,5.437-4.174,7.94
		c-0.989,0.058-1.696-0.823-2.461-1.264c-11.407-9.178-23.146-17.908-34.951-26.546c-14.341-10.226-28.766-20.435-44.213-28.932
		c-5.969-3.234-12.138-6.177-18.731-7.882c-7.798-2.602-16.253-3.666-24.343-1.821c-4.431,0.69-8.547,2.685-12.995,3.209
		c-2.444-2.469-3.708-6.244-3.766-9.686c1.397-5.961,3.658-11.689,6.277-17.21c3.4-8.039,7.482-15.755,11.44-23.528
		C699.505,824.561,703.371,816.363,708.094,808.64z"/>
	<path fill="#E7C699" stroke="#E7C699" d="M921.077,880.321c10.426-4.897,20.893-9.744,31.31-14.666
		c3.824,5.52,6.501,11.772,10.143,17.426c4.972,8.613,9.91,17.251,14.882,25.856c3.442,6.942,7.807,13.352,11.506,20.153
		c18.049,30.57,36.107,61.472,59.519,88.351c1.488,2.045,1.38,4.747,1.663,7.167c0.757,5.238,0.831,10.583,0.374,15.854
		c-0.54,2.802-0.233,5.845-1.688,8.405c-3.026,6.252-8.921,10.991-10.209,18.049c-2.677,11.473-2.428,23.354-2.469,35.059
		c-0.15,17.767,1.422,35.467,1.787,53.208c1.289,19.097,1.488,38.235,2.827,57.324c0.166,12.213,0.79,24.409,1.679,36.581
		c-0.125,9.461,1.347,18.831,1.746,28.267c1.962,17.102,4.381,34.286,9.669,50.731c4.456,13.676,13.418,25.407,23.861,35.118
		c3.616,3.891,8.056,6.884,11.806,10.633c-2.486,3.542-6.235,5.969-9.22,9.062c-7.873,7.142-16.52,13.66-26.396,17.758
		c-7.557,3.234-16.162,3.301-24.044,1.264c-11.298-3.159-21.425-9.27-31.351-15.339c-0.116-0.241-0.357-0.723-0.482-0.964
		c3.425-2.511,2.951-7.158,3.159-10.933c-0.183-20.668-1.962-41.328-5.246-61.738c-1.763-9.777-3.916-19.496-6.892-28.974
		c-2.07-7.549-5.579-14.574-8.123-21.957c-10.475-28.724-21.766-57.199-30.196-86.613c-1.721-6.26-2.32-12.729-3.65-19.055
		c-2.212-11.922-3.392-24.002-4.124-36.082c-0.033-14.691,0.125-29.381,0.141-44.063c1.405-15.015-1.397-30.728-9.536-43.581
		c-4.747-7.732-11.057-14.408-17.65-20.585c-13.078-10.783-26.596-21.026-39.649-31.834c-24.576-20.169-48.536-41.17-70.576-64.116
		c-2.27-2.685-5.313-4.731-7.15-7.732c8.472,1.804,17.018,4.007,25.773,3.575c18.748-0.69,36.731-6.826,54.073-13.543
		C892.835,892.958,906.819,886.299,921.077,880.321z"/>
	<path fill="#E7C699" stroke="#E7C699" d="M687.667,883.913c5.163-1.846,10.667-2.112,16.096-1.879
		c9.32-0.258,18.166,3.301,26.438,7.225c13.535,6.767,26.164,15.181,38.584,23.778c14.225,9.735,27.826,20.344,41.511,30.819
		c2.178,2.045,5.213,3.317,6.792,5.919c-8.846,15.913-17.592,31.9-26.613,47.721c-3.683,6.61-7.574,13.086-10.891,19.887
		c-7.699,13.111-15.156,26.355-22.838,39.474c-9.27,15.065-17.742,30.67-28.325,44.886c-3.758,5.047-8.098,9.611-12.745,13.843
		c-6.975,5.853-16.254,8.38-25.257,8.131c-10.924-0.374-21.849-2.02-32.316-5.238c-32.515-9.079-64.973-18.423-97.563-27.228
		c-39.108-11.34-79.015-19.745-119.195-26.255c-9.278-1.33-18.49-3.068-27.818-4.007c-6.21-1.33-12.579-1.189-18.872-1.904
		c-5.545-0.715-11.141-0.89-16.727-1.006c-11.723-1.305-23.561,0.042-35.134,2.02c-7.499,1.896-14.84,4.448-21.658,8.114
		c-2.153-9.137-0.416-18.565,1.072-27.668c2.96-13.759,12.571-24.651,21.641-34.893c4.847-5.221,9.869-10.301,14.99-15.239
		c7.1,3.001,14.2,6.377,21.957,7.358c9.395,2.095,19.064,1.48,28.616,1.604c24.941,0.108,49.875,0.914,74.816,0.998
		c7.665-0.125,15.414,0.615,22.996-0.856c10.916-1.247,21.641-3.783,32.233-6.693c5.645-1.472,11.473-0.632,17.168,0.05
		c18.166,3.982,35.525,10.8,53.017,16.977c8.854,3.234,17.542,6.917,26.405,10.135c4.19,1.455,8.189,4.124,12.82,3.65
		c1.904,0.233,3.783-0.923,4.514-2.669c9.619-40.671,19.587-81.268,29.389-121.906c0.84-4.365,0.457-8.829,0.865-13.227
		C684.449,884.512,686.336,884.52,687.667,883.913z"/>
	<path fill="#AED8EC" stroke="#AED8EC" d="M294.132,946.89c1.879-1.081,5.313-0.715,5.063,2.087
		c-1.979,2.328-4.506,4.074-6.826,6.036c-22.248,20.086-44.587,40.289-63.734,63.443c-10.392,12.462-19.712,25.881-27.103,40.339
		c-8.979,16.478-15.015,34.328-21.051,52.028c-4.041,12.072-7.266,24.393-10.883,36.589c-0.283,0.025-0.848,0.067-1.131,0.091
		c-2.669-4.007-3.384-9.129-2.32-13.784c3.991-19.33,8.422-38.626,14.907-57.291c2.777-8.414,7.882-15.738,12.454-23.229
		c8.372-11.465,17.484-22.372,26.937-32.948c10.442-11.98,21.042-23.819,32.008-35.325c9.328-10.592,19.413-20.502,29.813-30.021
		C286.092,952.078,289.651,948.644,294.132,946.89z"/>
	<path fill="#A1E5EA" stroke="#A1E5EA" d="M285.278,965.372c5.712-4.847,10.891-10.367,17.035-14.665
		c2.893,0.332,5.188,2.353,7.474,3.991c12.637,10.126,25.274,20.302,38.634,29.481c2.245,1.688,5.105,2.602,6.992,4.722
		c-3.026,3.858-6.909,6.992-10.193,10.65c-6.136,6.36-12.08,12.978-17.01,20.336c-9.627,13.543-12.421,30.927-10.858,47.214
		c-0.066,1.114,0.815,2.993-0.757,3.484c-8.572,4.082-16.827,8.763-25.282,13.053c-6.027,2.918-11.623,6.826-18.182,8.513
		c-10.841,3.791-22.364,5.512-32.873,10.284c-14.341,6.318-26.629,16.278-38.451,26.388c-9.436,7.333-17.226,16.478-26.022,24.517
		c-1.447-0.424-2.71-1.297-3.774-2.32c1.496-7.79,4.149-15.364,6.352-22.996c3.808-14.067,8.896-27.735,13.685-41.478
		c6.452-15.805,13.917-31.243,23.42-45.452c9.735-14.865,21.475-28.3,33.729-41.12C260.536,987.736,273.114,976.762,285.278,965.372
		z"/>
	<path fill="#59656A" stroke="#59656A" d="M1498.93,1292.38c0.732,13.726-0.291,27.544,0.574,41.278
		c0.507,4.83,0.382,9.735-0.083,14.574c-0.59-5.313,0.083-10.675-0.665-15.971C1498.722,1318.967,1498.472,1305.657,1498.93,1292.38
		z"/>
	<path fill="#F8FBFC" stroke="#F8FBFC" d="M1497.026,1364.078l0.599,0.025c0.175,6.867-0.549,13.751,0.133,20.61
		c0.308,4.589,0.316,9.22-0.116,13.809l-0.665,0.233C1496.893,1387.199,1496.893,1375.634,1497.026,1364.078z"/>
	<path fill="#A1E5EA" stroke="#A1E5EA" d="M1083.455,1384.43c3.109-2.727,5.786-6.003,9.237-8.305
		c12.687,8.971,25.623,17.642,39.349,24.991c8.123,4.581,16.478,8.829,25.307,11.897c9.145,2.685,18.315,5.662,27.868,6.443
		c10.184,1.131,20.46,0.765,30.695,0.673c7.034-0.532,15.081-1.422,20.793,3.675c-5.188,4.83-11.041,8.929-16.711,13.186
		c-19.047,14.574-40.796,26.305-64.465,31.102c-18.648,3.816-37.878,2.96-56.675,0.881c-16.162-1.912-32.199-4.731-48.154-7.956
		c-10.135-1.896-20.103-4.606-30.254-6.402c-5.994-1.156-11.914-2.644-17.85-4.049c-1.463-0.283-1.812-1.946-2.178-3.118
		c-1.962-8.272-4.614-16.345-6.751-24.559c-0.524-4.988,0.757-9.935,0.815-14.915c0.482-6.202,0.391-12.487,1.837-18.565
		l0.815-0.158c11.373,6.701,22.747,14.341,35.999,16.686c7.807,1.762,16.071,0.424,23.312-2.843
		C1066.636,1398.813,1075.24,1391.671,1083.455,1384.43z"/>
	<path fill="#AED8EC" stroke="#AED8EC" d="M1205.942,1450.5c11.19-6.476,20.959-15.065,31.31-22.705
		c-1.571,4.789-5.371,8.339-8.854,11.797c-5.903,5.82-12.471,10.883-19.147,15.771c-4.357,3.151-8.347,6.801-12.853,9.744
		c-18.091,5.13-36.373,9.661-54.564,14.416c-2.153,0.54-4.381,0.657-6.576,0.457c-17.143-1.347-34.286-2.777-51.463-3.301
		c-5.005-0.748-10.068-0.349-15.098-0.432c-4.456,0.141-8.854-0.757-13.302-0.532c-5.944-0.183-11.997,0.615-17.825-0.881
		c-12.438-2.461-24.808-5.279-37.246-7.74c-2.004-2.403-3.276-5.412-4.473-8.264c1.172-1.887,2.295-3.783,3.467-5.653
		c3.508-0.316,6.751,1.355,10.093,2.17c9.494,2.461,19.114,4.415,28.708,6.476c21.84,4.88,43.864,9.203,66.178,11.157
		c2.769,0.732,5.803,0,8.48,1.056c-0.166,0.283-0.499,0.865-0.665,1.156c6.585,0.116,13.177-0.008,19.77,0.083
		c5.878,0.183,11.698-0.915,17.559-1.264c-1.181-0.083-2.311-0.441-3.434-0.665c1.796-0.956,3.941-0.69,5.903-1.031
		C1171.307,1469.356,1189.639,1461.25,1205.942,1450.5z"/>
	<path fill="#030303" stroke="#030303" d="M61.178,1456.345c1.147-0.873,2.644-0.673,3.991-0.715
		c4.797,0.008,9.594,0.05,14.391-0.042c-0.208,1.106-0.432,2.236-0.773,3.342c-4.98,0.881-10.093-0.424-15.056,0.574
		c-2.469,1.339-4.398,3.442-6.46,5.313c-4.489,4.473-9.395,8.954-11.656,15.048c-2.868,7.358-5.396,14.982-6.077,22.905
		c-1.255,14.375-1.147,29.506,5.221,42.791c1.156,2.635,2.211,5.362,3.982,7.674c2.145-1.787,3.051-4.556,4.448-6.884
		c6.884-12.637,14.957-24.642,24.085-35.774c10.559-12.396,23.221-23.744,38.742-29.381c5.57-1.954,11.432-3.442,17.368-3.367
		c15.53,0.199,31.06,0.133,46.591,0.258c13.252,1.147,26.571,0.382,39.848,1.089c21.899,0.092,43.806,0.092,65.712,0.382
		c12.188,0.183,24.384-0.291,36.564,0.416c12.188,0.316,24.409-0.283,36.581,0.79c22.447,0.116,44.903-0.05,67.359,0.233
		c6.668-0.274,13.294,0.69,19.953,0.665c41.303-0.025,82.606,0.382,123.909,0.524c12.171,0.59,24.359,0.474,36.548,0.673
		c7.491-0.125,14.957,0.715,22.447,0.582c25.224,0.067,50.448,0.017,75.672,0.349c17.991,0.873,36.016,0.308,54.023,0.507
		c34.087,0.291,68.182,0.308,102.26,1.064c9.428-0.241,18.831,0.773,28.267,0.574c24.11,0.067,48.229-0.017,72.339,0.291
		c7.208-0.1,14.399,0.707,21.608,0.549c23.013,0.075,46.034-0.017,69.046,0.324c5.246,0.366,10.5,0.416,15.755,0.141
		c16.353,0.632,32.732,0.299,49.093,0.69c15.48,0.89,31.01,0.366,46.516,0.607c18.831,0.158,37.687-0.283,56.509,0.657
		c25.49,0.366,50.997,0.066,76.487,0.515c3.126,0.058,6.318,0.682,9.42-0.017c3.567-5.845,5.678-12.454,9.178-18.34
		c0.632-1.339,1.222-2.694,1.937-3.974c1.33,0.017,2.153,1.147,3.126,1.945c-3.583,6.111-6.252,12.687-9.178,19.13
		c-3.467,7-5.911,14.449-8.796,21.699c-4.323,11.997-8.588,24.06-11.731,36.44c-2.319,5.736-3.675,11.781-5.296,17.742
		c-1.505,6.701-3.533,13.26-5.03,19.961c-2.245,10.633-6.834,20.552-10.143,30.861c-1.33,4.107-3.375,7.998-4.165,12.288
		c6.061,0.54,12.155,0.083,18.232,0.241c7.125-0.133,14.266,0.308,21.375-0.283c11.432,0.59,22.88,0.133,34.328,0.274
		c6.842-0.116,13.701,0.299,20.543-0.258c8.38,0.516,16.786,0.158,25.183,0.266c10.999-0.15,22.015,0.341,33.006-0.241
		c11.989,0.54,23.994,0.116,35.991,0.258c10.176-0.15,20.36,0.308,30.528-0.241c9.129,0.357,18.307,0.424,27.444,0
		c12.729,0.374,25.499,0.407,38.244,0.025c11.149,0.474,22.323,0.1,33.488,0.216c7.948-0.116,15.913,0.249,23.861-0.208
		c4.706,0.224,9.445,0.358,14.167-0.008c13.36,0.499,26.746,0.083,40.122,0.224c10.018-0.158,20.061,0.333,30.063-0.224
		c-1.738-7.125-5.047-13.709-7.266-20.668c0.241-0.507,0.715-1.521,0.956-2.02c0.424-0.241,1.28-0.715,1.704-0.948
		c1.945,3.567,2.636,7.624,4.257,11.34c1.455,3.974,2.976,7.931,4.564,11.872c0.507,1.28,0.765,2.744,0.332,4.124
		c-2.344,0.657-4.805,0.308-7.183,0.391c-96.44-0.017-192.872,0-289.313-0.008c-46.325-0.091-92.657,0.183-138.974-0.133
		c-0.898-2.652,0.54-5.171,1.521-7.541c3.068-9.918,7.316-19.454,10.193-29.431c-139.373-0.067-278.754-0.008-418.135-0.025
		c-15.123,0.042-30.262-0.1-45.385,0.067c-0.067,10.409-0.017,20.826-0.008,31.252c-0.067,1.829,0.175,3.75-0.432,5.554
		c-7.973,0.59-16.004,0.092-24.002,0.258c-16.079,0.008-32.15-0.025-48.229,0.017c-1.787-0.05-3.641,0.141-5.329-0.524
		c-0.383-10.908-0.075-21.849-0.15-32.765c-0.2-1.272,0.424-2.81-0.491-3.816c-194.435-0.075-388.879-0.066-583.315,0
		c-0.648,2.311-0.258,4.764-0.349,7.167c-0.067,9.877,0.158,19.762-0.108,29.639c-7.632,0.64-15.322,0.1-22.979,0.283
		c-15.514,0-31.036,0-46.557,0c-2.66-0.058-5.346,0.183-7.99-0.241c-0.723-4.041-0.357-8.156-0.432-12.23
		c-0.075-8.214,0.133-16.436-0.1-24.642c-10.741-0.042-21.491-0.025-32.233,0c-1.33-0.042-2.685,0-3.949-0.449
		c-0.224-1.463-0.133-2.96,0.507-4.273c3.292-7.832,6.435-15.713,9.844-23.486c0.981-2.228,2.444-4.207,3.267-6.493
		c0.698-2.162-0.939-3.966-1.92-5.695c-4.739-7.815-7.075-16.761-8.979-25.607c-1.264-9.386-0.915-18.906,0.075-28.292
		c1.879-8.264,3.799-16.619,7.466-24.301C47.602,1468.034,54.303,1461.898,61.178,1456.345 M121.129,1483.755
		c-4.539,0.615-8.439,3.134-12.512,5.022c-6.751,3.434-12.462,8.488-18.132,13.427c-7.574,6.925-13.768,15.156-19.87,23.362
		c-13.128,19.213-23.844,40.064-32.208,61.763c-0.216,0.998-1.422,2.27-0.457,3.226c37.628,0.249,75.273-0.008,112.91,0.108
		c344.741,0,689.482-0.008,1034.231,0c29.847-0.1,59.718,0.191,89.557-0.141c2.527-7.665,3.267-15.854,6.26-23.395
		c1.181-5.188,3.001-10.218,3.899-15.464c2.037-8.247,5.304-16.112,7.458-24.318c1.422-4.473,2.968-8.921,4.78-13.252
		c2.394-6.834,4.83-13.651,7.665-20.311c-24.9-0.516-49.816-0.582-74.725-0.823c-11.631-0.532-23.27-0.507-34.91-0.54
		c-20.793,0.067-41.577-0.349-62.37-0.358c-21.051-0.557-42.11-0.698-63.168-0.748c-39.915-0.382-79.829-0.482-119.727-1.297
		c-13.851-0.166-27.71,0.025-41.561-0.291c-22.738,0.199-45.452-0.806-68.182-0.848c-20.236-0.017-40.463-0.449-60.691-0.399
		c-6.751-0.25-13.585,0.441-20.236-0.931c-3.217-0.407-6.468-0.108-9.686-0.175c-43.515-0.216-87.037,0.042-130.544-0.715
		c-22.447,0-44.895-0.366-67.334-0.773c-14.133-0.133-28.259,0.108-42.384-0.249c-9.145-0.183-18.34,0.482-27.419-0.823
		c-58.762-0.025-117.524-0.532-176.278-1.089c-19.953-0.59-39.915-0.299-59.868-0.441c-23.121-0.108-46.233-0.042-69.346,0.042
		l-0.357-0.349c23.345,0.557,46.682-0.815,70.027-0.499l0.399-0.324c-38.21,0.208-76.437,0.175-114.648-0.283
		C128.088,1481.918,124.679,1483.24,121.129,1483.755 M73.017,1594.446c-0.025,10.924-0.042,21.857,0.008,32.79
		c1.106,0.74,2.552,0.374,3.816,0.524c21.358-0.075,42.716-0.025,64.075-0.025c1.014,0.008,1.987-0.166,2.926-0.516
		c-0.067-10.916-0.067-21.84,0-32.756C120.24,1594.304,96.62,1594.329,73.017,1594.446 M735.496,1594.462
		c-0.931,1.014-0.391,2.561-0.557,3.833c0.224,9.735-0.258,19.504,0.233,29.231c21.641,0.482,43.323,0.025,64.981,0.224
		c2.103-0.05,4.298,0.175,6.327-0.54c-0.017-10.916,0-21.824-0.008-32.732C782.827,1594.296,759.149,1594.313,735.496,1594.462
		 M1576.922,1628.441c0.357,1.014,2.12,0.033,3.035,0.349c36.049-0.091,72.098-0.05,108.146-0.017
		c1.197-0.291,3.109,0.673,3.949-0.333c-16.57,0.283-33.139,0.05-49.7,0.125C1620.536,1628.482,1598.729,1628.748,1576.922,1628.441
		z"/>
	<path fill="#1A1A1A" stroke="#1A1A1A" d="M79.56,1455.588c5.138-0.665,10.401-0.091,15.588-0.274c292.09,0,584.179,0,876.277,0
		c7.582,0.133,15.189-0.283,22.755,0.216c-1.056,1.921-2.494,4.248-1.147,6.427c1.671,3.267,3.259,7.699,7.449,8.256
		c12.512,2.727,25.033,5.379,37.512,8.256c5.155,1.197,10.484,0.723,15.73,0.881c12.188,0.632,24.368,1.804,36.589,1.555
		c15.472,0.349,30.886,1.912,46.333,2.86c3.899,0.831,7.89,0.648,11.864,0.599c6.56-0.15,13.26,2.095,19.679-0.175
		c13.194-4.29,27.012-6.21,40.181-10.592c5.795-2.137,12.562-2.444,17.301-6.784c4.581-3.841,9.669-7.117,13.626-11.639
		c0.324-0.05,0.964-0.141,1.289-0.191c18.39,0.042,36.78-0.025,55.171,0.033l0.449,0.607c0.266,1.089,0.524,2.203,0.806,3.334
		c6.119,0.89,12.371-0.515,18.473,0.632c0.715,3.883,0.216,7.882-0.416,11.764c-3.5,5.886-5.612,12.496-9.178,18.34
		c-3.101,0.698-6.294,0.075-9.42,0.017c-25.49-0.449-50.997-0.15-76.487-0.515c-18.823-0.939-37.678-0.499-56.509-0.657
		c-15.505-0.241-31.035,0.283-46.516-0.607c-16.362-0.391-32.74-0.058-49.093-0.69c-5.254,0.274-10.509,0.224-15.755-0.141
		c-23.013-0.341-46.034-0.249-69.046-0.324c-7.208,0.158-14.399-0.648-21.608-0.549c-24.11-0.308-48.229-0.224-72.339-0.291
		c-9.436,0.199-18.839-0.815-28.267-0.574c-34.078-0.757-68.173-0.773-102.26-1.064c-18.008-0.2-36.032,0.366-54.023-0.507
		c-25.224-0.333-50.448-0.283-75.672-0.349c-7.491,0.133-14.957-0.707-22.447-0.582c-12.188-0.199-24.376-0.083-36.548-0.673
		c-41.303-0.141-82.606-0.549-123.909-0.524c-6.659,0.025-13.285-0.939-19.953-0.665c-22.456-0.283-44.911-0.116-67.359-0.233
		c-12.171-1.073-24.393-0.474-36.581-0.79c-12.18-0.707-24.376-0.233-36.564-0.416c-21.907-0.291-43.814-0.291-65.712-0.382
		c-13.277-0.707-26.596,0.058-39.848-1.089c-15.53-0.125-31.06-0.058-46.591-0.258c-5.936-0.075-11.797,1.413-17.368,3.367
		c-15.522,5.637-28.184,16.985-38.742,29.381c-9.129,11.132-17.201,23.137-24.085,35.774c-1.397,2.328-2.303,5.096-4.448,6.884
		c-1.771-2.311-2.827-5.038-3.982-7.674c-6.368-13.286-6.476-28.417-5.221-42.791c0.682-7.923,3.209-15.547,6.077-22.905
		c2.261-6.094,7.167-10.575,11.656-15.048c2.062-1.871,3.991-3.974,6.46-5.313c4.963-0.998,10.076,0.307,15.056-0.574
		C79.128,1457.825,79.352,1456.694,79.56,1455.588z"/>
	<path fill="#0E0E0E" stroke="#0E0E0E" d="M1215.129,1455.256c8.04-0.474,16.12-0.266,24.168-0.083
		c-3.957,4.523-9.045,7.798-13.626,11.639c-4.739,4.34-11.506,4.647-17.301,6.784c-13.169,4.381-26.987,6.302-40.181,10.592
		c-6.418,2.27-13.119,0.025-19.679,0.175c-3.974,0.05-7.965,0.233-11.864-0.599c5.213-0.474,10.442-1.081,15.514-2.436
		c14.109-3.567,28.084-7.641,42.259-10.966c5.113-1.014,8.754-4.955,12.729-7.981
		C1209.999,1460.219,1212.809,1457.991,1215.129,1455.256z"/>
	<path fill="#848585" stroke="#848585" d="M1319.085,1456.17c1.563,0.507,1.796,2.419,2.411,3.758
		c-0.308,1.272-1.205,2.203-2.278,2.893C1319.043,1460.593,1319.085,1458.373,1319.085,1456.17z"/>
	<path fill="#CBF9FC" stroke="#CBF9FC" d="M1112.777,1474.036c11.074-0.083,22.198,0.574,33.23-0.69
		c1.122,0.224,2.253,0.582,3.434,0.665c-5.861,0.349-11.681,1.447-17.559,1.264c-6.593-0.091-13.186,0.033-19.77-0.083
		C1112.279,1474.901,1112.611,1474.319,1112.777,1474.036z"/>
	<path fill="#67757B" stroke="#67757B" d="M121.129,1483.755c3.55-0.516,6.959-1.837,10.575-1.887
		c38.21,0.457,76.437,0.491,114.648,0.283l-0.399,0.324c-23.345-0.316-46.682,1.056-70.027,0.499l0.357,0.349
		c23.112-0.083,46.225-0.15,69.346-0.042c19.953,0.141,39.915-0.15,59.868,0.441c58.754,0.557,117.516,1.064,176.278,1.089
		c9.079,1.305,18.274,0.64,27.419,0.823c14.125,0.358,28.25,0.116,42.384,0.249c22.439,0.407,44.886,0.773,67.334,0.773
		c43.506,0.757,87.029,0.499,130.544,0.715c3.217,0.066,6.468-0.233,9.686,0.175c6.651,1.372,13.485,0.682,20.236,0.931
		c20.228-0.05,40.455,0.382,60.691,0.399c22.73,0.042,45.443,1.047,68.182,0.848c13.851,0.316,27.71,0.125,41.561,0.291
		c39.898,0.815,79.813,0.915,119.727,1.297c21.059,0.05,42.118,0.191,63.168,0.748c20.793,0.008,41.577,0.424,62.37,0.358
		c11.639,0.033,23.279,0.008,34.91,0.54c24.908,0.241,49.825,0.308,74.725,0.823c-2.835,6.659-5.271,13.477-7.665,20.311
		c-1.813,4.332-3.359,8.779-4.78,13.252c-2.153,8.206-5.421,16.071-7.458,24.318c-0.898,5.246-2.719,10.276-3.899,15.464
		c-2.993,7.541-3.733,15.73-6.26,23.395c-29.838,0.333-59.71,0.042-89.557,0.141c-344.749-0.008-689.49,0-1034.231,0
		c-37.637-0.116-75.282,0.141-112.91-0.108c-0.964-0.956,0.241-2.228,0.457-3.226c8.364-21.699,19.08-42.55,32.208-61.763
		c6.102-8.206,12.296-16.436,19.87-23.362c5.67-4.938,11.382-9.993,18.132-13.427C112.691,1486.89,116.59,1484.371,121.129,1483.755
		z"/>
	<path fill="#363D40" stroke="#363D40" d="M1685.101,1606.817c-2.461-7.05-4.997-14.067-7.682-21.026
		c-2.403-8.339-6.044-16.229-8.879-24.418c-2.86-8.738-6.585-17.168-9.212-25.981c-2.702-6.734-5.204-13.535-7.541-20.394
		c-6.161-15.938-11.398-32.208-17.733-48.071c-4.115-9.777-9.561-19.38-17.875-26.189c-4.747-3.791-10.841-4.963-16.586-6.402
		c-5.994-1.447-12.23-1.388-18.232-2.76c-7.341-1.596-14.849-1.97-22.298-2.66c-2.935-0.241-5.853-0.532-8.729-1.089
		c-3.941-0.74-7.956-0.374-11.922-0.657c-6.851-0.507-13.701-1.23-20.577-1.139c-7.25-0.765-14.499-1.496-21.799-1.197
		c-14.466-0.607-28.924-1.621-43.406-1.463c-13.327,0.033-26.662-0.349-39.973,0.291c-1.655-0.125-3.317-0.224-4.947-0.133
		c-6.476,0.773-13.028,0.939-19.438,2.12c-13.028,2.411-26.147,5.354-38.26,10.858c-3.758,1.771-7.399,3.841-10.575,6.526
		c-8.206,7.258-13.892,16.877-19.305,26.288c-3.583,6.111-6.252,12.687-9.178,19.13c-3.467,7-5.911,14.449-8.796,21.699
		c-4.323,11.997-8.588,24.06-11.731,36.44c-2.319,5.736-3.675,11.781-5.296,17.742c-1.505,6.701-3.533,13.26-5.03,19.961
		c-2.245,10.633-6.834,20.552-10.143,30.861c-1.33,4.107-3.375,7.998-4.165,12.288c6.061,0.54,12.155,0.083,18.232,0.241
		c7.125-0.133,14.266,0.308,21.375-0.283c11.432,0.59,22.88,0.133,34.328,0.274c6.842-0.116,13.701,0.299,20.543-0.258
		c8.38,0.516,16.786,0.158,25.183,0.266c10.999-0.15,22.015,0.341,33.006-0.241c11.989,0.54,23.994,0.116,35.991,0.258
		c10.176-0.15,20.36,0.308,30.528-0.241c9.129,0.357,18.307,0.424,27.444,0c12.729,0.374,25.499,0.407,38.244,0.025
		c11.149,0.474,22.323,0.1,33.488,0.216c7.948-0.116,15.913,0.249,23.861-0.208c4.706,0.224,9.445,0.358,14.167-0.008
		c13.36,0.499,26.746,0.083,40.122,0.224c10.018-0.158,20.061,0.333,30.063-0.224
		C1690.63,1620.36,1687.321,1613.775,1685.101,1606.817z"/>
	<path fill="#67757B" stroke="#67757B" d="M73.017,1594.446c23.603-0.116,47.223-0.141,70.825,0.017
		c-0.067,10.916-0.067,21.84,0,32.756c-0.939,0.349-1.912,0.524-2.926,0.516c-21.358,0-42.716-0.05-64.075,0.025
		c-1.264-0.15-2.71,0.216-3.816-0.524C72.976,1616.303,72.992,1605.37,73.017,1594.446z"/>
	<path fill="#67757B" stroke="#67757B" d="M735.496,1594.462c23.653-0.15,47.331-0.166,70.975,0.017
		c0.008,10.908-0.008,21.815,0.008,32.732c-2.029,0.715-4.223,0.49-6.327,0.54c-21.657-0.2-43.34,0.258-64.981-0.224
		c-0.491-9.727-0.008-19.496-0.233-29.231C735.105,1597.023,734.565,1595.477,735.496,1594.462z"/>
	<path fill="#626F74" stroke="#626F74" d="M1576.922,1628.441c21.807,0.308,43.614,0.042,65.43,0.125
		c16.561-0.075,33.13,0.158,49.7-0.125c-0.84,1.006-2.752,0.042-3.949,0.333c-36.049-0.033-72.097-0.075-108.146,0.017
		C1579.042,1628.474,1577.279,1629.455,1576.922,1628.441z"/>
</g>
</svg>
